<svg xmlns="http://www.w3.org/2000/svg" width="246" height="265" viewBox="0 0 246 265">
  <title>
    Nord Vim: Midnight
  </title>
  <g fill="none" fill-rule="evenodd">
    <path fill="#EBCB8B" fill-rule="nonzero" d="M1.94425736,264 L1.94425736,248.16 L1.99225736,248.16 L8.59225736,264 L9.64825736,264 L16.1762574,248.16 L16.2242574,248.16 L16.2242574,264 L17.2802574,264 L17.2802574,246.864 L15.7682574,246.864 L9.14425736,262.824 L9.09625736,262.824 L2.40025736,246.864 L0.888257363,246.864 L0.888257363,264 L1.94425736,264 Z M41.2502574,264 L41.2502574,246.864 L40.1942574,246.864 L40.1942574,264 L41.2502574,264 Z M69.7322574,264 C71.1082574,264 72.2962574,263.78 73.2962574,263.34 C74.2962574,262.9 75.1242574,262.296 75.7802574,261.528 C76.4362574,260.76 76.9202574,259.852 77.2322574,258.804 C77.5442574,257.756 77.7002574,256.624 77.7002574,255.408 C77.7002574,254.32 77.5762574,253.264 77.3282574,252.24 C77.0802574,251.216 76.6522574,250.304 76.0442574,249.504 C75.4362574,248.704 74.6242574,248.064 73.6082574,247.584 C72.5922574,247.104 71.3162574,246.864 69.7802574,246.864 L69.7802574,246.864 L64.1642574,246.864 L64.1642574,264 L69.7322574,264 Z M69.8282574,263.088 L65.2202574,263.088 L65.2202574,247.776 L69.6122574,247.776 C70.0282574,247.776 70.4962574,247.804 71.0162574,247.86 C71.5362574,247.916 72.0562574,248.032 72.5762574,248.208 C73.0962574,248.384 73.6002574,248.636 74.0882574,248.964 C74.5762574,249.292 75.0082574,249.74 75.3842574,250.308 C75.7602574,250.876 76.0642574,251.576 76.2962574,252.408 C76.5282574,253.24 76.6442574,254.24 76.6442574,255.408 C76.6442574,256.896 76.4402574,258.132 76.0322574,259.116 C75.6242574,260.1 75.0922574,260.884 74.4362574,261.468 C73.7802574,262.052 73.0482574,262.468 72.2402574,262.716 C71.4322574,262.964 70.6282574,263.088 69.8282574,263.088 L69.8282574,263.088 Z M101.118257,264 L101.118257,248.16 L101.166257,248.16 L112.062257,264 L113.310257,264 L113.310257,246.864 L112.254257,246.864 L112.254257,262.584 L112.206257,262.584 L101.382257,246.864 L100.062257,246.864 L100.062257,264 L101.118257,264 Z M137.280257,264 L137.280257,246.864 L136.224257,246.864 L136.224257,264 L137.280257,264 Z M167.634257,264.408 C168.386257,264.408 169.110257,264.312 169.806257,264.12 C170.502257,263.928 171.134257,263.66 171.702257,263.316 C172.270257,262.972 172.762257,262.548 173.178257,262.044 C173.594257,261.54 173.906257,260.976 174.114257,260.352 L174.114257,260.352 L174.162257,260.352 L174.162257,264 L175.074257,264 L175.074257,255.6 L167.850257,255.6 L167.850257,256.512 L174.162257,256.512 C174.210257,257.568 174.090257,258.524 173.802257,259.38 C173.514257,260.236 173.086257,260.968 172.518257,261.576 C171.950257,262.184 171.258257,262.656 170.442257,262.992 C169.626257,263.328 168.706257,263.496 167.682257,263.496 C166.498257,263.496 165.466257,263.284 164.586257,262.86 C163.706257,262.436 162.974257,261.864 162.390257,261.144 C161.806257,260.424 161.366257,259.58 161.070257,258.612 C160.774257,257.644 160.626257,256.616 160.626257,255.528 C160.626257,254.456 160.778257,253.428 161.082257,252.444 C161.386257,251.46 161.834257,250.592 162.426257,249.84 C163.018257,249.088 163.754257,248.488 164.634257,248.04 C165.514257,247.592 166.530257,247.368 167.682257,247.368 C169.266257,247.368 170.578257,247.792 171.618257,248.64 C172.658257,249.488 173.378257,250.664 173.778257,252.168 L173.778257,252.168 L174.786257,252.168 C174.642257,251.272 174.354257,250.472 173.922257,249.768 C173.490257,249.064 172.958257,248.464 172.326257,247.968 C171.694257,247.472 170.978257,247.096 170.178257,246.84 C169.378257,246.584 168.538257,246.456 167.658257,246.456 C166.362257,246.456 165.214257,246.7 164.214257,247.188 C163.214257,247.676 162.370257,248.336 161.682257,249.168 C160.994257,250 160.470257,250.964 160.110257,252.06 C159.750257,253.156 159.570257,254.312 159.570257,255.528 C159.570257,256.76 159.746257,257.916 160.098257,258.996 C160.450257,260.076 160.970257,261.016 161.658257,261.816 C162.346257,262.616 163.190257,263.248 164.190257,263.712 C165.190257,264.176 166.338257,264.408 167.634257,264.408 Z M198.924257,264 L198.924257,255.552 L209.868257,255.552 L209.868257,264 L210.924257,264 L210.924257,246.864 L209.868257,246.864 L209.868257,254.64 L198.924257,254.64 L198.924257,246.864 L197.868257,246.864 L197.868257,264 L198.924257,264 Z M239.070257,264 L239.070257,247.776 L245.118257,247.776 L245.118257,246.864 L231.990257,246.864 L231.990257,247.776 L238.014257,247.776 L238.014257,264 L239.070257,264 Z"/>
    <g fill-rule="nonzero">
      <g fill="#2E3440" transform="translate(33)">
        <polygon points="124.083 153.917 61.165 73.378 61.165 51.032 130.896 141.179 168.37 141.179 168.37 14.239 105.347 14.239 91.723 .612 181.995 .612 181.995 153.917"/>
        <polygon points="58.659 .612 121.579 81.146 121.579 103.491 51.847 13.347 14.374 13.347 14.374 140.288 77.396 140.288 91.026 153.917 .747 153.917 .747 .612"/>
      </g>
      <path fill="#88C0D0" d="M0.854,180.019 L2.812,180.019 L34.653,224.976 L34.784,224.976 L34.784,180.019 L36.089,180.019 L36.089,226.607 L34.131,226.607 L2.291,181.652 L2.16,181.652 L2.16,226.607 L0.854,226.607 L0.854,180.019 L0.854,180.019 Z M56.578,192.284 C66.364,192.284 71.649,200.702 71.649,209.837 C71.649,219.036 66.364,227.388 56.511,227.388 C46.725,227.388 41.439,219.036 41.439,209.837 C41.439,200.702 46.726,192.284 56.578,192.284 L56.578,192.284 Z M56.578,226.083 C65.516,226.083 70.345,218.319 70.345,209.837 C70.345,201.485 65.517,193.591 56.578,193.591 C47.508,193.591 42.745,201.486 42.745,209.837 C42.745,218.319 47.508,226.083 56.578,226.083 Z M78.372,226.606 L77.066,226.606 L77.066,193.069 L78.372,193.069 L78.372,201.356 L78.502,201.356 C79.741,196.397 83.656,192.024 91.683,192.284 L91.683,193.591 C82.483,193.134 78.372,200.312 78.372,207.618 L78.372,226.606 Z M120.064,180.019 L121.37,180.019 L121.37,226.607 L120.064,226.607 L120.064,217.211 L119.933,217.211 C118.237,223.084 113.343,227.389 106.493,227.389 C97.619,227.389 92.203,220.018 92.203,209.905 C92.203,200.509 97.227,192.286 106.493,192.286 C113.605,192.286 118.368,196.399 119.933,202.466 L120.064,202.466 L120.064,180.019 L120.064,180.019 Z M106.493,193.591 C97.293,193.591 93.508,202.138 93.508,209.904 C93.508,218.515 97.816,226.084 106.493,226.084 C115.105,226.084 120.064,218.582 120.064,209.904 C120.064,199.528 114.648,193.591 106.493,193.591 Z"/>
      <path fill="#2E3440" d="M143.097,180.019 L147.861,180.019 L162.999,221.712 L163.129,221.712 L178.136,180.019 L182.834,180.019 L165.545,226.607 L160.389,226.607 L143.097,180.019 Z M186.62,180.019 L190.729,180.019 L190.729,186.609 L186.62,186.609 L186.62,180.019 Z M186.62,192.938 L190.729,192.938 L190.729,226.606 L186.62,226.606 L186.62,192.938 Z M198.625,192.938 L202.408,192.938 L202.408,198.614 L202.603,198.614 C204.757,194.569 208.28,191.96 213.631,191.96 C218.068,191.96 222.048,194.112 223.286,198.55 C225.309,194.112 229.551,191.96 233.987,191.96 C241.36,191.96 245.144,195.808 245.144,203.769 L245.144,226.607 L241.033,226.607 L241.033,203.964 C241.033,198.419 238.946,195.417 233.074,195.417 C225.961,195.417 223.939,201.29 223.939,207.552 L223.939,226.607 L219.828,226.607 L219.828,203.769 C219.893,199.201 218.002,195.417 212.782,195.417 C205.67,195.417 202.8,200.767 202.734,207.813 L202.734,226.606 L198.624,226.606 L198.624,192.938 L198.625,192.938 Z"/>
    </g>
  </g>
</svg>
