<svg width="600" height="418" viewBox="0 0 600 418" fill="none" xmlns="http://www.w3.org/2000/svg">
<mask id="mask0" mask-type="alpha" maskUnits="userSpaceOnUse" x="0" y="258" width="480" height="160">
<rect y="258" width="480" height="160" rx="6" fill="#2E3440"/>
</mask>
<g mask="url(#mask0)">
<rect x="0.5" y="258.5" width="479" height="159" rx="5.5" stroke="#E5E9F0"/>
<rect x="120" y="258" width="120" height="120" fill="#2E3440"/>
<rect y="258" width="120" height="120" fill="#242933"/>
<rect x="240" y="258" width="120" height="120" fill="#3B4252"/>
<rect x="360" y="258" width="120" height="120" fill="#434C5E"/>
<path d="M152.685 400.454C152.601 400.454 152.531 400.426 152.475 400.37C152.419 400.314 152.396 400.244 152.405 400.16L152.657 398.466H151.271C151.178 398.466 151.103 398.438 151.047 398.382C150.991 398.326 150.963 398.251 150.963 398.158V397.682C150.963 397.589 150.991 397.514 151.047 397.458C151.103 397.402 151.178 397.374 151.271 397.374H152.825L153.189 394.91H151.635C151.542 394.91 151.467 394.882 151.411 394.826C151.355 394.77 151.327 394.695 151.327 394.602V394.126C151.327 394.033 151.355 393.958 151.411 393.902C151.467 393.846 151.542 393.818 151.635 393.818H153.357L153.609 392.124C153.628 392.04 153.66 391.97 153.707 391.914C153.763 391.858 153.833 391.83 153.917 391.83H154.435C154.519 391.83 154.589 391.858 154.645 391.914C154.701 391.97 154.724 392.04 154.715 392.124L154.463 393.818H156.535L156.787 392.124C156.806 392.04 156.838 391.97 156.885 391.914C156.941 391.858 157.011 391.83 157.095 391.83H157.613C157.697 391.83 157.767 391.858 157.823 391.914C157.879 391.97 157.902 392.04 157.893 392.124L157.641 393.818H158.999C159.092 393.818 159.167 393.846 159.223 393.902C159.288 393.958 159.321 394.033 159.321 394.126V394.602C159.321 394.695 159.288 394.77 159.223 394.826C159.167 394.882 159.092 394.91 158.999 394.91H157.487L157.123 397.374H158.635C158.728 397.374 158.803 397.402 158.859 397.458C158.924 397.514 158.957 397.589 158.957 397.682V398.158C158.957 398.251 158.924 398.326 158.859 398.382C158.803 398.438 158.728 398.466 158.635 398.466H156.955L156.703 400.16C156.684 400.244 156.647 400.314 156.591 400.37C156.535 400.426 156.465 400.454 156.381 400.454H155.863C155.779 400.454 155.709 400.426 155.653 400.37C155.597 400.314 155.574 400.244 155.583 400.16L155.835 398.466H153.777L153.525 400.16C153.506 400.244 153.469 400.314 153.413 400.37C153.357 400.426 153.287 400.454 153.203 400.454H152.685ZM156.003 397.374L156.367 394.91H154.309L153.945 397.374H156.003ZM160.753 401C160.659 401 160.58 400.972 160.515 400.916C160.459 400.851 160.431 400.771 160.431 400.678V400.23C160.431 400.015 160.547 399.81 160.781 399.614L163.749 396.646C164.467 396.049 164.962 395.563 165.233 395.19C165.503 394.807 165.639 394.406 165.639 393.986C165.639 393.445 165.485 393.02 165.177 392.712C164.878 392.404 164.439 392.25 163.861 392.25C163.319 392.25 162.885 392.413 162.559 392.74C162.232 393.057 162.031 393.482 161.957 394.014C161.938 394.126 161.891 394.21 161.817 394.266C161.751 394.313 161.677 394.336 161.593 394.336H160.865C160.781 394.336 160.711 394.313 160.655 394.266C160.599 394.21 160.571 394.145 160.571 394.07C160.589 393.566 160.725 393.085 160.977 392.628C161.229 392.161 161.597 391.783 162.083 391.494C162.577 391.195 163.17 391.046 163.861 391.046C164.915 391.046 165.709 391.321 166.241 391.872C166.782 392.413 167.053 393.104 167.053 393.944C167.053 394.532 166.903 395.064 166.605 395.54C166.315 396.007 165.863 396.511 165.247 397.052L162.559 399.782H166.927C167.029 399.782 167.109 399.815 167.165 399.88C167.23 399.936 167.263 400.011 167.263 400.104V400.678C167.263 400.771 167.23 400.851 167.165 400.916C167.099 400.972 167.02 401 166.927 401H160.753ZM169.221 401C169.128 401 169.049 400.972 168.983 400.916C168.927 400.851 168.899 400.771 168.899 400.678V391.536C168.899 391.433 168.927 391.354 168.983 391.298C169.049 391.233 169.128 391.2 169.221 391.2H175.003C175.097 391.2 175.171 391.233 175.227 391.298C175.293 391.354 175.325 391.433 175.325 391.536V392.068C175.325 392.161 175.297 392.241 175.241 392.306C175.185 392.362 175.106 392.39 175.003 392.39H170.243V395.456H174.695C174.789 395.456 174.863 395.489 174.919 395.554C174.985 395.61 175.017 395.689 175.017 395.792V396.31C175.017 396.403 174.985 396.483 174.919 396.548C174.863 396.604 174.789 396.632 174.695 396.632H170.243V399.81H175.115C175.218 399.81 175.297 399.838 175.353 399.894C175.409 399.95 175.437 400.029 175.437 400.132V400.678C175.437 400.771 175.405 400.851 175.339 400.916C175.283 400.972 175.209 401 175.115 401H169.221ZM180.064 401.14C179.326 401.14 178.687 401.023 178.146 400.79C177.614 400.547 177.208 400.235 176.928 399.852C176.657 399.469 176.512 399.068 176.494 398.648C176.494 398.564 176.522 398.499 176.578 398.452C176.634 398.396 176.704 398.368 176.788 398.368H177.474C177.67 398.368 177.8 398.471 177.866 398.676C177.987 399.143 178.248 399.474 178.65 399.67C179.051 399.857 179.522 399.95 180.064 399.95C180.726 399.95 181.254 399.796 181.646 399.488C182.038 399.171 182.234 398.718 182.234 398.13C182.234 397.001 181.548 396.436 180.176 396.436H178.846C178.752 396.436 178.673 396.408 178.608 396.352C178.552 396.287 178.524 396.207 178.524 396.114V395.736C178.524 395.605 178.575 395.479 178.678 395.358L181.394 392.39H177.264C177.17 392.39 177.091 392.362 177.026 392.306C176.97 392.241 176.942 392.161 176.942 392.068V391.536C176.942 391.443 176.97 391.363 177.026 391.298C177.091 391.233 177.17 391.2 177.264 391.2H182.85C182.952 391.2 183.032 391.233 183.088 391.298C183.153 391.354 183.186 391.433 183.186 391.536V392.04C183.186 392.152 183.134 392.259 183.032 392.362L180.33 395.372L180.554 395.386C181.506 395.414 182.257 395.661 182.808 396.128C183.358 396.595 183.634 397.276 183.634 398.172C183.634 398.779 183.48 399.306 183.172 399.754C182.864 400.202 182.439 400.547 181.898 400.79C181.356 401.023 180.745 401.14 180.064 401.14ZM189.634 401C189.54 401 189.461 400.972 189.396 400.916C189.34 400.851 189.312 400.771 189.312 400.678V398.662H184.776C184.682 398.662 184.603 398.634 184.538 398.578C184.482 398.513 184.454 398.433 184.454 398.34V397.78C184.454 397.64 184.505 397.5 184.608 397.36L188.808 391.438C188.854 391.363 188.924 391.307 189.018 391.27C189.111 391.223 189.214 391.2 189.326 391.2H190.334C190.427 391.2 190.502 391.233 190.558 391.298C190.623 391.354 190.656 391.429 190.656 391.522V397.444H191.916C192.009 397.444 192.088 397.477 192.154 397.542C192.219 397.598 192.252 397.673 192.252 397.766V398.34C192.252 398.433 192.219 398.513 192.154 398.578C192.098 398.634 192.023 398.662 191.93 398.662H190.656V400.678C190.656 400.771 190.623 400.851 190.558 400.916C190.502 400.972 190.427 401 190.334 401H189.634ZM189.326 397.472V392.67L185.952 397.472H189.326ZM198.049 401C197.956 401 197.876 400.972 197.811 400.916C197.755 400.851 197.727 400.771 197.727 400.678V398.662H193.191C193.098 398.662 193.018 398.634 192.953 398.578C192.897 398.513 192.869 398.433 192.869 398.34V397.78C192.869 397.64 192.92 397.5 193.023 397.36L197.223 391.438C197.27 391.363 197.34 391.307 197.433 391.27C197.526 391.223 197.629 391.2 197.741 391.2H198.749C198.842 391.2 198.917 391.233 198.973 391.298C199.038 391.354 199.071 391.429 199.071 391.522V397.444H200.331C200.424 397.444 200.504 397.477 200.569 397.542C200.634 397.598 200.667 397.673 200.667 397.766V398.34C200.667 398.433 200.634 398.513 200.569 398.578C200.513 398.634 200.438 398.662 200.345 398.662H199.071V400.678C199.071 400.771 199.038 400.851 198.973 400.916C198.917 400.972 198.842 401 198.749 401H198.049ZM197.741 397.472V392.67L194.367 397.472H197.741ZM205.288 401.14C204.084 401.14 203.202 400.79 202.642 400.09C202.082 399.39 201.784 398.471 201.746 397.332C201.737 397.08 201.732 396.674 201.732 396.114C201.732 395.535 201.737 395.115 201.746 394.854C201.774 393.734 202.073 392.824 202.642 392.124C203.212 391.415 204.094 391.06 205.288 391.06C206.492 391.06 207.379 391.415 207.948 392.124C208.518 392.824 208.816 393.734 208.844 394.854C208.863 395.377 208.872 395.797 208.872 396.114C208.872 396.422 208.863 396.828 208.844 397.332C208.807 398.471 208.508 399.39 207.948 400.09C207.388 400.79 206.502 401.14 205.288 401.14ZM205.288 399.936C205.988 399.936 206.516 399.703 206.87 399.236C207.234 398.769 207.426 398.111 207.444 397.262C207.463 396.721 207.472 396.329 207.472 396.086C207.472 395.825 207.463 395.442 207.444 394.938C207.426 394.098 207.239 393.44 206.884 392.964C206.53 392.488 205.998 392.25 205.288 392.25C204.588 392.25 204.056 392.488 203.692 392.964C203.338 393.44 203.151 394.098 203.132 394.938L203.118 396.086L203.132 397.262C203.151 398.111 203.338 398.769 203.692 399.236C204.056 399.703 204.588 399.936 205.288 399.936Z" fill="#4C566A"/>
<path d="M33.43 400.454C33.346 400.454 33.276 400.426 33.22 400.37C33.164 400.314 33.1406 400.244 33.15 400.16L33.402 398.466H32.016C31.9226 398.466 31.848 398.438 31.792 398.382C31.736 398.326 31.708 398.251 31.708 398.158V397.682C31.708 397.589 31.736 397.514 31.792 397.458C31.848 397.402 31.9226 397.374 32.016 397.374H33.57L33.934 394.91H32.38C32.2866 394.91 32.212 394.882 32.156 394.826C32.1 394.77 32.072 394.695 32.072 394.602V394.126C32.072 394.033 32.1 393.958 32.156 393.902C32.212 393.846 32.2866 393.818 32.38 393.818H34.102L34.354 392.124C34.3726 392.04 34.4053 391.97 34.452 391.914C34.508 391.858 34.578 391.83 34.662 391.83H35.18C35.264 391.83 35.334 391.858 35.39 391.914C35.446 391.97 35.4693 392.04 35.46 392.124L35.208 393.818H37.28L37.532 392.124C37.5506 392.04 37.5833 391.97 37.63 391.914C37.686 391.858 37.756 391.83 37.84 391.83H38.358C38.442 391.83 38.512 391.858 38.568 391.914C38.624 391.97 38.6473 392.04 38.638 392.124L38.386 393.818H39.744C39.8373 393.818 39.912 393.846 39.968 393.902C40.0333 393.958 40.066 394.033 40.066 394.126V394.602C40.066 394.695 40.0333 394.77 39.968 394.826C39.912 394.882 39.8373 394.91 39.744 394.91H38.232L37.868 397.374H39.38C39.4733 397.374 39.548 397.402 39.604 397.458C39.6693 397.514 39.702 397.589 39.702 397.682V398.158C39.702 398.251 39.6693 398.326 39.604 398.382C39.548 398.438 39.4733 398.466 39.38 398.466H37.7L37.448 400.16C37.4293 400.244 37.392 400.314 37.336 400.37C37.28 400.426 37.21 400.454 37.126 400.454H36.608C36.524 400.454 36.454 400.426 36.398 400.37C36.342 400.314 36.3186 400.244 36.328 400.16L36.58 398.466H34.522L34.27 400.16C34.2513 400.244 34.214 400.314 34.158 400.37C34.102 400.426 34.032 400.454 33.948 400.454H33.43ZM36.748 397.374L37.112 394.91H35.054L34.69 397.374H36.748ZM41.4977 401C41.4044 401 41.325 400.972 41.2597 400.916C41.2037 400.851 41.1757 400.771 41.1757 400.678V400.23C41.1757 400.015 41.2924 399.81 41.5257 399.614L44.4937 396.646C45.2124 396.049 45.707 395.563 45.9777 395.19C46.2484 394.807 46.3837 394.406 46.3837 393.986C46.3837 393.445 46.2297 393.02 45.9217 392.712C45.623 392.404 45.1844 392.25 44.6057 392.25C44.0644 392.25 43.6304 392.413 43.3037 392.74C42.977 393.057 42.7764 393.482 42.7017 394.014C42.683 394.126 42.6364 394.21 42.5617 394.266C42.4964 394.313 42.4217 394.336 42.3377 394.336H41.6097C41.5257 394.336 41.4557 394.313 41.3997 394.266C41.3437 394.21 41.3157 394.145 41.3157 394.07C41.3344 393.566 41.4697 393.085 41.7217 392.628C41.9737 392.161 42.3424 391.783 42.8277 391.494C43.3224 391.195 43.915 391.046 44.6057 391.046C45.6604 391.046 46.4537 391.321 46.9857 391.872C47.527 392.413 47.7977 393.104 47.7977 393.944C47.7977 394.532 47.6484 395.064 47.3497 395.54C47.0604 396.007 46.6077 396.511 45.9917 397.052L43.3037 399.782H47.6717C47.7744 399.782 47.8537 399.815 47.9097 399.88C47.975 399.936 48.0077 400.011 48.0077 400.104V400.678C48.0077 400.771 47.975 400.851 47.9097 400.916C47.8444 400.972 47.765 401 47.6717 401H41.4977ZM53.9038 401C53.8104 401 53.7311 400.972 53.6658 400.916C53.6098 400.851 53.5818 400.771 53.5818 400.678V398.662H49.0458C48.9524 398.662 48.8731 398.634 48.8078 398.578C48.7518 398.513 48.7238 398.433 48.7238 398.34V397.78C48.7238 397.64 48.7751 397.5 48.8778 397.36L53.0778 391.438C53.1244 391.363 53.1944 391.307 53.2878 391.27C53.3811 391.223 53.4838 391.2 53.5958 391.2H54.6038C54.6971 391.2 54.7718 391.233 54.8278 391.298C54.8931 391.354 54.9258 391.429 54.9258 391.522V397.444H56.1858C56.2791 397.444 56.3584 397.477 56.4238 397.542C56.4891 397.598 56.5218 397.673 56.5218 397.766V398.34C56.5218 398.433 56.4891 398.513 56.4238 398.578C56.3678 398.634 56.2931 398.662 56.1998 398.662H54.9258V400.678C54.9258 400.771 54.8931 400.851 54.8278 400.916C54.7718 400.972 54.6971 401 54.6038 401H53.9038ZM53.5958 397.472V392.67L50.2218 397.472H53.5958ZM57.7131 401C57.6197 401 57.5404 400.972 57.4751 400.916C57.4191 400.851 57.3911 400.771 57.3911 400.678V400.23C57.3911 400.015 57.5077 399.81 57.7411 399.614L60.7091 396.646C61.4277 396.049 61.9224 395.563 62.1931 395.19C62.4637 394.807 62.5991 394.406 62.5991 393.986C62.5991 393.445 62.4451 393.02 62.1371 392.712C61.8384 392.404 61.3997 392.25 60.8211 392.25C60.2797 392.25 59.8457 392.413 59.5191 392.74C59.1924 393.057 58.9917 393.482 58.9171 394.014C58.8984 394.126 58.8517 394.21 58.7771 394.266C58.7117 394.313 58.6371 394.336 58.5531 394.336H57.8251C57.7411 394.336 57.6711 394.313 57.6151 394.266C57.5591 394.21 57.5311 394.145 57.5311 394.07C57.5497 393.566 57.6851 393.085 57.9371 392.628C58.1891 392.161 58.5577 391.783 59.0431 391.494C59.5377 391.195 60.1304 391.046 60.8211 391.046C61.8757 391.046 62.6691 391.321 63.2011 391.872C63.7424 392.413 64.0131 393.104 64.0131 393.944C64.0131 394.532 63.8637 395.064 63.5651 395.54C63.2757 396.007 62.8231 396.511 62.2071 397.052L59.5191 399.782H63.8871C63.9897 399.782 64.0691 399.815 64.1251 399.88C64.1904 399.936 64.2231 400.011 64.2231 400.104V400.678C64.2231 400.771 64.1904 400.851 64.1251 400.916C64.0597 400.972 63.9804 401 63.8871 401H57.7131ZM67.3439 401C67.2599 401 67.1899 400.972 67.1339 400.916C67.0872 400.851 67.0639 400.776 67.0639 400.692C67.0639 400.627 67.0825 400.566 67.1199 400.51L69.2619 397.528C69.0379 397.584 68.7859 397.612 68.5059 397.612C67.8432 397.603 67.2552 397.449 66.7419 397.15C66.2379 396.851 65.8505 396.455 65.5799 395.96C65.3092 395.465 65.1739 394.938 65.1739 394.378C65.1739 393.818 65.3045 393.286 65.5659 392.782C65.8365 392.269 66.2379 391.853 66.7699 391.536C67.3019 391.219 67.9459 391.06 68.7019 391.06C69.4579 391.06 70.1019 391.214 70.6339 391.522C71.1752 391.83 71.5812 392.236 71.8519 392.74C72.1225 393.244 72.2579 393.781 72.2579 394.35C72.2579 394.854 72.1692 395.302 71.9919 395.694C71.8145 396.077 71.5672 396.497 71.2499 396.954L68.5479 400.72C68.4825 400.804 68.4172 400.874 68.3519 400.93C68.2959 400.977 68.2119 401 68.0999 401H67.3439ZM68.7019 396.478C69.0939 396.478 69.4532 396.394 69.7799 396.226C70.1159 396.049 70.3819 395.801 70.5779 395.484C70.7739 395.157 70.8719 394.784 70.8719 394.364C70.8719 393.944 70.7739 393.575 70.5779 393.258C70.3819 392.931 70.1159 392.684 69.7799 392.516C69.4532 392.339 69.0939 392.25 68.7019 392.25C68.3099 392.25 67.9505 392.339 67.6239 392.516C67.2972 392.684 67.0359 392.931 66.8399 393.258C66.6532 393.575 66.5599 393.944 66.5599 394.364C66.5599 394.784 66.6532 395.157 66.8399 395.484C67.0359 395.801 67.2972 396.049 67.6239 396.226C67.9505 396.394 68.3099 396.478 68.7019 396.478ZM76.6276 401.14C75.8903 401.14 75.251 401.023 74.7096 400.79C74.1776 400.547 73.7716 400.235 73.4916 399.852C73.221 399.469 73.0763 399.068 73.0576 398.648C73.0576 398.564 73.0856 398.499 73.1416 398.452C73.1976 398.396 73.2676 398.368 73.3516 398.368H74.0376C74.2336 398.368 74.3643 398.471 74.4296 398.676C74.551 399.143 74.8123 399.474 75.2136 399.67C75.615 399.857 76.0863 399.95 76.6276 399.95C77.2903 399.95 77.8176 399.796 78.2096 399.488C78.6016 399.171 78.7976 398.718 78.7976 398.13C78.7976 397.001 78.1116 396.436 76.7396 396.436H75.4096C75.3163 396.436 75.237 396.408 75.1716 396.352C75.1156 396.287 75.0876 396.207 75.0876 396.114V395.736C75.0876 395.605 75.139 395.479 75.2416 395.358L77.9576 392.39H73.8276C73.7343 392.39 73.655 392.362 73.5896 392.306C73.5336 392.241 73.5056 392.161 73.5056 392.068V391.536C73.5056 391.443 73.5336 391.363 73.5896 391.298C73.655 391.233 73.7343 391.2 73.8276 391.2H79.4136C79.5163 391.2 79.5956 391.233 79.6516 391.298C79.717 391.354 79.7496 391.433 79.7496 391.536V392.04C79.7496 392.152 79.6983 392.259 79.5956 392.362L76.8936 395.372L77.1176 395.386C78.0696 395.414 78.821 395.661 79.3716 396.128C79.9223 396.595 80.1976 397.276 80.1976 398.172C80.1976 398.779 80.0436 399.306 79.7356 399.754C79.4276 400.202 79.003 400.547 78.4616 400.79C77.9203 401.023 77.309 401.14 76.6276 401.14ZM84.7558 401.14C84.0185 401.14 83.3792 401.023 82.8378 400.79C82.3058 400.547 81.8998 400.235 81.6198 399.852C81.3492 399.469 81.2045 399.068 81.1858 398.648C81.1858 398.564 81.2138 398.499 81.2698 398.452C81.3258 398.396 81.3958 398.368 81.4798 398.368H82.1658C82.3618 398.368 82.4925 398.471 82.5578 398.676C82.6792 399.143 82.9405 399.474 83.3418 399.67C83.7432 399.857 84.2145 399.95 84.7558 399.95C85.4185 399.95 85.9458 399.796 86.3378 399.488C86.7298 399.171 86.9258 398.718 86.9258 398.13C86.9258 397.001 86.2398 396.436 84.8678 396.436H83.5378C83.4445 396.436 83.3652 396.408 83.2998 396.352C83.2438 396.287 83.2158 396.207 83.2158 396.114V395.736C83.2158 395.605 83.2672 395.479 83.3698 395.358L86.0858 392.39H81.9558C81.8625 392.39 81.7832 392.362 81.7178 392.306C81.6618 392.241 81.6338 392.161 81.6338 392.068V391.536C81.6338 391.443 81.6618 391.363 81.7178 391.298C81.7832 391.233 81.8625 391.2 81.9558 391.2H87.5418C87.6445 391.2 87.7238 391.233 87.7798 391.298C87.8452 391.354 87.8778 391.433 87.8778 391.536V392.04C87.8778 392.152 87.8265 392.259 87.7238 392.362L85.0218 395.372L85.2458 395.386C86.1978 395.414 86.9492 395.661 87.4998 396.128C88.0505 396.595 88.3258 397.276 88.3258 398.172C88.3258 398.779 88.1718 399.306 87.8638 399.754C87.5558 400.202 87.1312 400.547 86.5898 400.79C86.0485 401.023 85.4372 401.14 84.7558 401.14Z" fill="#4C566A"/>
<path d="M272.781 400.454C272.697 400.454 272.627 400.426 272.571 400.37C272.515 400.314 272.491 400.244 272.501 400.16L272.753 398.466H271.367C271.273 398.466 271.199 398.438 271.143 398.382C271.087 398.326 271.059 398.251 271.059 398.158V397.682C271.059 397.589 271.087 397.514 271.143 397.458C271.199 397.402 271.273 397.374 271.367 397.374H272.921L273.285 394.91H271.731C271.637 394.91 271.563 394.882 271.507 394.826C271.451 394.77 271.423 394.695 271.423 394.602V394.126C271.423 394.033 271.451 393.958 271.507 393.902C271.563 393.846 271.637 393.818 271.731 393.818H273.453L273.705 392.124C273.723 392.04 273.756 391.97 273.803 391.914C273.859 391.858 273.929 391.83 274.013 391.83H274.531C274.615 391.83 274.685 391.858 274.741 391.914C274.797 391.97 274.82 392.04 274.811 392.124L274.559 393.818H276.631L276.883 392.124C276.901 392.04 276.934 391.97 276.981 391.914C277.037 391.858 277.107 391.83 277.191 391.83H277.709C277.793 391.83 277.863 391.858 277.919 391.914C277.975 391.97 277.998 392.04 277.989 392.124L277.737 393.818H279.095C279.188 393.818 279.263 393.846 279.319 393.902C279.384 393.958 279.417 394.033 279.417 394.126V394.602C279.417 394.695 279.384 394.77 279.319 394.826C279.263 394.882 279.188 394.91 279.095 394.91H277.583L277.219 397.374H278.731C278.824 397.374 278.899 397.402 278.955 397.458C279.02 397.514 279.053 397.589 279.053 397.682V398.158C279.053 398.251 279.02 398.326 278.955 398.382C278.899 398.438 278.824 398.466 278.731 398.466H277.051L276.799 400.16C276.78 400.244 276.743 400.314 276.687 400.37C276.631 400.426 276.561 400.454 276.477 400.454H275.959C275.875 400.454 275.805 400.426 275.749 400.37C275.693 400.314 275.669 400.244 275.679 400.16L275.931 398.466H273.873L273.621 400.16C273.602 400.244 273.565 400.314 273.509 400.37C273.453 400.426 273.383 400.454 273.299 400.454H272.781ZM276.099 397.374L276.463 394.91H274.405L274.041 397.374H276.099ZM284.012 401.14C283.275 401.14 282.636 401.023 282.094 400.79C281.562 400.547 281.156 400.235 280.876 399.852C280.606 399.469 280.461 399.068 280.442 398.648C280.442 398.564 280.47 398.499 280.526 398.452C280.582 398.396 280.652 398.368 280.736 398.368H281.422C281.618 398.368 281.749 398.471 281.814 398.676C281.936 399.143 282.197 399.474 282.598 399.67C283 399.857 283.471 399.95 284.012 399.95C284.675 399.95 285.202 399.796 285.594 399.488C285.986 399.171 286.182 398.718 286.182 398.13C286.182 397.001 285.496 396.436 284.124 396.436H282.794C282.701 396.436 282.622 396.408 282.556 396.352C282.5 396.287 282.472 396.207 282.472 396.114V395.736C282.472 395.605 282.524 395.479 282.626 395.358L285.342 392.39H281.212C281.119 392.39 281.04 392.362 280.974 392.306C280.918 392.241 280.89 392.161 280.89 392.068V391.536C280.89 391.443 280.918 391.363 280.974 391.298C281.04 391.233 281.119 391.2 281.212 391.2H286.798C286.901 391.2 286.98 391.233 287.036 391.298C287.102 391.354 287.134 391.433 287.134 391.536V392.04C287.134 392.152 287.083 392.259 286.98 392.362L284.278 395.372L284.502 395.386C285.454 395.414 286.206 395.661 286.756 396.128C287.307 396.595 287.582 397.276 287.582 398.172C287.582 398.779 287.428 399.306 287.12 399.754C286.812 400.202 286.388 400.547 285.846 400.79C285.305 401.023 284.694 401.14 284.012 401.14ZM289.508 401C289.415 401 289.336 400.972 289.27 400.916C289.214 400.851 289.186 400.771 289.186 400.678V391.536C289.186 391.433 289.214 391.354 289.27 391.298C289.336 391.233 289.415 391.2 289.508 391.2H293.344C294.343 391.2 295.094 391.438 295.598 391.914C296.102 392.39 296.354 393.015 296.354 393.79C296.354 394.313 296.233 394.747 295.99 395.092C295.757 395.437 295.477 395.689 295.15 395.848C295.542 396.044 295.874 396.347 296.144 396.758C296.415 397.169 296.55 397.64 296.55 398.172C296.55 398.695 296.429 399.171 296.186 399.6C295.953 400.029 295.603 400.37 295.136 400.622C294.67 400.874 294.11 401 293.456 401H289.508ZM293.134 395.344C293.722 395.344 294.17 395.209 294.478 394.938C294.796 394.667 294.954 394.289 294.954 393.804C294.954 393.328 294.8 392.964 294.492 392.712C294.184 392.46 293.732 392.334 293.134 392.334H290.558V395.344H293.134ZM293.274 399.866C293.862 399.866 294.32 399.707 294.646 399.39C294.982 399.073 295.15 398.667 295.15 398.172C295.15 397.659 294.982 397.248 294.646 396.94C294.32 396.623 293.862 396.464 293.274 396.464H290.558V399.866H293.274ZM302.654 401C302.561 401 302.481 400.972 302.416 400.916C302.36 400.851 302.332 400.771 302.332 400.678V398.662H297.796C297.703 398.662 297.623 398.634 297.558 398.578C297.502 398.513 297.474 398.433 297.474 398.34V397.78C297.474 397.64 297.525 397.5 297.628 397.36L301.828 391.438C301.875 391.363 301.945 391.307 302.038 391.27C302.131 391.223 302.234 391.2 302.346 391.2H303.354C303.447 391.2 303.522 391.233 303.578 391.298C303.643 391.354 303.676 391.429 303.676 391.522V397.444H304.936C305.029 397.444 305.109 397.477 305.174 397.542C305.239 397.598 305.272 397.673 305.272 397.766V398.34C305.272 398.433 305.239 398.513 305.174 398.578C305.118 398.634 305.043 398.662 304.95 398.662H303.676V400.678C303.676 400.771 303.643 400.851 303.578 400.916C303.522 400.972 303.447 401 303.354 401H302.654ZM302.346 397.472V392.67L298.972 397.472H302.346ZM306.463 401C306.37 401 306.291 400.972 306.225 400.916C306.169 400.851 306.141 400.771 306.141 400.678V400.23C306.141 400.015 306.258 399.81 306.491 399.614L309.459 396.646C310.178 396.049 310.673 395.563 310.943 395.19C311.214 394.807 311.349 394.406 311.349 393.986C311.349 393.445 311.195 393.02 310.887 392.712C310.589 392.404 310.15 392.25 309.571 392.25C309.03 392.25 308.596 392.413 308.269 392.74C307.943 393.057 307.742 393.482 307.667 394.014C307.649 394.126 307.602 394.21 307.527 394.266C307.462 394.313 307.387 394.336 307.303 394.336H306.575C306.491 394.336 306.421 394.313 306.365 394.266C306.309 394.21 306.281 394.145 306.281 394.07C306.3 393.566 306.435 393.085 306.687 392.628C306.939 392.161 307.308 391.783 307.793 391.494C308.288 391.195 308.881 391.046 309.571 391.046C310.626 391.046 311.419 391.321 311.951 391.872C312.493 392.413 312.763 393.104 312.763 393.944C312.763 394.532 312.614 395.064 312.315 395.54C312.026 396.007 311.573 396.511 310.957 397.052L308.269 399.782H312.637C312.74 399.782 312.819 399.815 312.875 399.88C312.941 399.936 312.973 400.011 312.973 400.104V400.678C312.973 400.771 312.941 400.851 312.875 400.916C312.81 400.972 312.731 401 312.637 401H306.463ZM317.48 401.14C316.771 401.14 316.159 401.014 315.646 400.762C315.133 400.51 314.736 400.179 314.456 399.768C314.185 399.357 314.041 398.919 314.022 398.452V398.424C314.022 398.349 314.05 398.289 314.106 398.242C314.162 398.195 314.227 398.172 314.302 398.172H315.058C315.254 398.172 315.38 398.275 315.436 398.48C315.567 398.975 315.819 399.343 316.192 399.586C316.565 399.829 316.995 399.95 317.48 399.95C318.105 399.95 318.623 399.763 319.034 399.39C319.454 399.007 319.664 398.48 319.664 397.808C319.664 397.201 319.454 396.711 319.034 396.338C318.623 395.965 318.105 395.778 317.48 395.778C317.144 395.778 316.873 395.825 316.668 395.918C316.463 396.002 316.257 396.123 316.052 396.282C315.94 396.366 315.842 396.431 315.758 396.478C315.683 396.515 315.599 396.534 315.506 396.534H314.778C314.694 396.534 314.619 396.506 314.554 396.45C314.489 396.385 314.461 396.31 314.47 396.226L314.918 391.55C314.927 391.438 314.96 391.354 315.016 391.298C315.081 391.233 315.165 391.2 315.268 391.2H320.154C320.247 391.2 320.322 391.233 320.378 391.298C320.443 391.354 320.476 391.429 320.476 391.522V392.068C320.476 392.161 320.443 392.241 320.378 392.306C320.322 392.362 320.247 392.39 320.154 392.39H316.122L315.856 395.148C316.36 394.831 316.967 394.672 317.676 394.672C318.292 394.672 318.857 394.798 319.37 395.05C319.893 395.302 320.303 395.666 320.602 396.142C320.91 396.618 321.064 397.178 321.064 397.822C321.064 398.513 320.91 399.11 320.602 399.614C320.303 400.109 319.883 400.487 319.342 400.748C318.801 401.009 318.18 401.14 317.48 401.14ZM322.433 401C322.339 401 322.26 400.972 322.195 400.916C322.139 400.851 322.111 400.771 322.111 400.678V400.23C322.111 400.015 322.227 399.81 322.461 399.614L325.429 396.646C326.147 396.049 326.642 395.563 326.913 395.19C327.183 394.807 327.319 394.406 327.319 393.986C327.319 393.445 327.165 393.02 326.857 392.712C326.558 392.404 326.119 392.25 325.541 392.25C324.999 392.25 324.565 392.413 324.239 392.74C323.912 393.057 323.711 393.482 323.637 394.014C323.618 394.126 323.571 394.21 323.497 394.266C323.431 394.313 323.357 394.336 323.273 394.336H322.545C322.461 394.336 322.391 394.313 322.335 394.266C322.279 394.21 322.251 394.145 322.251 394.07C322.269 393.566 322.405 393.085 322.657 392.628C322.909 392.161 323.277 391.783 323.763 391.494C324.257 391.195 324.85 391.046 325.541 391.046C326.595 391.046 327.389 391.321 327.921 391.872C328.462 392.413 328.733 393.104 328.733 393.944C328.733 394.532 328.583 395.064 328.285 395.54C327.995 396.007 327.543 396.511 326.927 397.052L324.239 399.782H328.607C328.709 399.782 328.789 399.815 328.845 399.88C328.91 399.936 328.943 400.011 328.943 400.104V400.678C328.943 400.771 328.91 400.851 328.845 400.916C328.779 400.972 328.7 401 328.607 401H322.433Z" fill="#4C566A"/>
<path d="M392.418 400.454C392.334 400.454 392.264 400.426 392.208 400.37C392.152 400.314 392.129 400.244 392.138 400.16L392.39 398.466H391.004C390.911 398.466 390.836 398.438 390.78 398.382C390.724 398.326 390.696 398.251 390.696 398.158V397.682C390.696 397.589 390.724 397.514 390.78 397.458C390.836 397.402 390.911 397.374 391.004 397.374H392.558L392.922 394.91H391.368C391.275 394.91 391.2 394.882 391.144 394.826C391.088 394.77 391.06 394.695 391.06 394.602V394.126C391.06 394.033 391.088 393.958 391.144 393.902C391.2 393.846 391.275 393.818 391.368 393.818H393.09L393.342 392.124C393.361 392.04 393.394 391.97 393.44 391.914C393.496 391.858 393.566 391.83 393.65 391.83H394.168C394.252 391.83 394.322 391.858 394.378 391.914C394.434 391.97 394.458 392.04 394.448 392.124L394.196 393.818H396.268L396.52 392.124C396.539 392.04 396.572 391.97 396.618 391.914C396.674 391.858 396.744 391.83 396.828 391.83H397.346C397.43 391.83 397.5 391.858 397.556 391.914C397.612 391.97 397.636 392.04 397.626 392.124L397.374 393.818H398.732C398.826 393.818 398.9 393.846 398.956 393.902C399.022 393.958 399.054 394.033 399.054 394.126V394.602C399.054 394.695 399.022 394.77 398.956 394.826C398.9 394.882 398.826 394.91 398.732 394.91H397.22L396.856 397.374H398.368C398.462 397.374 398.536 397.402 398.592 397.458C398.658 397.514 398.69 397.589 398.69 397.682V398.158C398.69 398.251 398.658 398.326 398.592 398.382C398.536 398.438 398.462 398.466 398.368 398.466H396.688L396.436 400.16C396.418 400.244 396.38 400.314 396.324 400.37C396.268 400.426 396.198 400.454 396.114 400.454H395.596C395.512 400.454 395.442 400.426 395.386 400.37C395.33 400.314 395.307 400.244 395.316 400.16L395.568 398.466H393.51L393.258 400.16C393.24 400.244 393.202 400.314 393.146 400.37C393.09 400.426 393.02 400.454 392.936 400.454H392.418ZM395.736 397.374L396.1 394.91H394.042L393.678 397.374H395.736ZM405.092 401C404.999 401 404.919 400.972 404.854 400.916C404.798 400.851 404.77 400.771 404.77 400.678V398.662H400.234C400.141 398.662 400.061 398.634 399.996 398.578C399.94 398.513 399.912 398.433 399.912 398.34V397.78C399.912 397.64 399.963 397.5 400.066 397.36L404.266 391.438C404.313 391.363 404.383 391.307 404.476 391.27C404.569 391.223 404.672 391.2 404.784 391.2H405.792C405.885 391.2 405.96 391.233 406.016 391.298C406.081 391.354 406.114 391.429 406.114 391.522V397.444H407.374C407.467 397.444 407.547 397.477 407.612 397.542C407.677 397.598 407.71 397.673 407.71 397.766V398.34C407.71 398.433 407.677 398.513 407.612 398.578C407.556 398.634 407.481 398.662 407.388 398.662H406.114V400.678C406.114 400.771 406.081 400.851 406.016 400.916C405.96 400.972 405.885 401 405.792 401H405.092ZM404.784 397.472V392.67L401.41 397.472H404.784ZM412.065 401.14C411.328 401.14 410.689 401.023 410.147 400.79C409.615 400.547 409.209 400.235 408.929 399.852C408.659 399.469 408.514 399.068 408.495 398.648C408.495 398.564 408.523 398.499 408.579 398.452C408.635 398.396 408.705 398.368 408.789 398.368H409.475C409.671 398.368 409.802 398.471 409.867 398.676C409.989 399.143 410.25 399.474 410.651 399.67C411.053 399.857 411.524 399.95 412.065 399.95C412.728 399.95 413.255 399.796 413.647 399.488C414.039 399.171 414.235 398.718 414.235 398.13C414.235 397.001 413.549 396.436 412.177 396.436H410.847C410.754 396.436 410.675 396.408 410.609 396.352C410.553 396.287 410.525 396.207 410.525 396.114V395.736C410.525 395.605 410.577 395.479 410.679 395.358L413.395 392.39H409.265C409.172 392.39 409.093 392.362 409.027 392.306C408.971 392.241 408.943 392.161 408.943 392.068V391.536C408.943 391.443 408.971 391.363 409.027 391.298C409.093 391.233 409.172 391.2 409.265 391.2H414.851C414.954 391.2 415.033 391.233 415.089 391.298C415.155 391.354 415.187 391.433 415.187 391.536V392.04C415.187 392.152 415.136 392.259 415.033 392.362L412.331 395.372L412.555 395.386C413.507 395.414 414.259 395.661 414.809 396.128C415.36 396.595 415.635 397.276 415.635 398.172C415.635 398.779 415.481 399.306 415.173 399.754C414.865 400.202 414.441 400.547 413.899 400.79C413.358 401.023 412.747 401.14 412.065 401.14ZM421.635 401C421.542 401 421.463 400.972 421.397 400.916C421.341 400.851 421.313 400.771 421.313 400.678V398.662H416.777C416.684 398.662 416.605 398.634 416.539 398.578C416.483 398.513 416.455 398.433 416.455 398.34V397.78C416.455 397.64 416.507 397.5 416.609 397.36L420.809 391.438C420.856 391.363 420.926 391.307 421.019 391.27C421.113 391.223 421.215 391.2 421.327 391.2H422.335C422.429 391.2 422.503 391.233 422.559 391.298C422.625 391.354 422.657 391.429 422.657 391.522V397.444H423.917C424.011 397.444 424.09 397.477 424.155 397.542C424.221 397.598 424.253 397.673 424.253 397.766V398.34C424.253 398.433 424.221 398.513 424.155 398.578C424.099 398.634 424.025 398.662 423.931 398.662H422.657V400.678C422.657 400.771 422.625 400.851 422.559 400.916C422.503 400.972 422.429 401 422.335 401H421.635ZM421.327 397.472V392.67L417.953 397.472H421.327ZM429.183 401.14C427.932 401.14 426.98 400.804 426.327 400.132C425.683 399.46 425.337 398.531 425.291 397.346C425.281 397.094 425.277 396.683 425.277 396.114C425.277 395.535 425.281 395.115 425.291 394.854C425.337 393.678 425.687 392.754 426.341 392.082C426.994 391.401 427.941 391.06 429.183 391.06C430.013 391.06 430.718 391.209 431.297 391.508C431.875 391.797 432.314 392.18 432.613 392.656C432.911 393.132 433.075 393.641 433.103 394.182V394.21C433.103 394.285 433.07 394.35 433.005 394.406C432.949 394.453 432.883 394.476 432.809 394.476H432.039C431.852 394.476 431.735 394.369 431.689 394.154C431.53 393.454 431.245 392.964 430.835 392.684C430.424 392.395 429.873 392.25 429.183 392.25C427.577 392.25 426.747 393.141 426.691 394.924C426.681 395.176 426.677 395.563 426.677 396.086C426.677 396.609 426.681 397.005 426.691 397.276C426.747 399.059 427.577 399.95 429.183 399.95C429.873 399.95 430.424 399.81 430.835 399.53C431.255 399.241 431.539 398.746 431.689 398.046C431.717 397.925 431.759 397.841 431.815 397.794C431.871 397.747 431.945 397.724 432.039 397.724H432.809C432.893 397.724 432.963 397.752 433.019 397.808C433.084 397.855 433.112 397.92 433.103 398.004C433.075 398.555 432.911 399.068 432.613 399.544C432.314 400.02 431.875 400.407 431.297 400.706C430.718 400.995 430.013 401.14 429.183 401.14ZM437.569 401.14C436.86 401.14 436.248 401.014 435.735 400.762C435.222 400.51 434.825 400.179 434.545 399.768C434.274 399.357 434.13 398.919 434.111 398.452V398.424C434.111 398.349 434.139 398.289 434.195 398.242C434.251 398.195 434.316 398.172 434.391 398.172H435.147C435.343 398.172 435.469 398.275 435.525 398.48C435.656 398.975 435.908 399.343 436.281 399.586C436.654 399.829 437.084 399.95 437.569 399.95C438.194 399.95 438.712 399.763 439.123 399.39C439.543 399.007 439.753 398.48 439.753 397.808C439.753 397.201 439.543 396.711 439.123 396.338C438.712 395.965 438.194 395.778 437.569 395.778C437.233 395.778 436.962 395.825 436.757 395.918C436.552 396.002 436.346 396.123 436.141 396.282C436.029 396.366 435.931 396.431 435.847 396.478C435.772 396.515 435.688 396.534 435.595 396.534H434.867C434.783 396.534 434.708 396.506 434.643 396.45C434.578 396.385 434.55 396.31 434.559 396.226L435.007 391.55C435.016 391.438 435.049 391.354 435.105 391.298C435.17 391.233 435.254 391.2 435.357 391.2H440.243C440.336 391.2 440.411 391.233 440.467 391.298C440.532 391.354 440.565 391.429 440.565 391.522V392.068C440.565 392.161 440.532 392.241 440.467 392.306C440.411 392.362 440.336 392.39 440.243 392.39H436.211L435.945 395.148C436.449 394.831 437.056 394.672 437.765 394.672C438.381 394.672 438.946 394.798 439.459 395.05C439.982 395.302 440.392 395.666 440.691 396.142C440.999 396.618 441.153 397.178 441.153 397.822C441.153 398.513 440.999 399.11 440.691 399.614C440.392 400.109 439.972 400.487 439.431 400.748C438.89 401.009 438.269 401.14 437.569 401.14ZM443.054 401C442.96 401 442.881 400.972 442.816 400.916C442.76 400.851 442.732 400.771 442.732 400.678V391.536C442.732 391.433 442.76 391.354 442.816 391.298C442.881 391.233 442.96 391.2 443.054 391.2H448.836C448.929 391.2 449.004 391.233 449.06 391.298C449.125 391.354 449.158 391.433 449.158 391.536V392.068C449.158 392.161 449.13 392.241 449.074 392.306C449.018 392.362 448.938 392.39 448.836 392.39H444.076V395.456H448.528C448.621 395.456 448.696 395.489 448.752 395.554C448.817 395.61 448.85 395.689 448.85 395.792V396.31C448.85 396.403 448.817 396.483 448.752 396.548C448.696 396.604 448.621 396.632 448.528 396.632H444.076V399.81H448.948C449.05 399.81 449.13 399.838 449.186 399.894C449.242 399.95 449.27 400.029 449.27 400.132V400.678C449.27 400.771 449.237 400.851 449.172 400.916C449.116 400.972 449.041 401 448.948 401H443.054Z" fill="#4C566A"/>
</g>
<path d="M175.367 239C175.234 239 175.121 238.953 175.027 238.86C174.934 238.767 174.887 238.653 174.887 238.52V225.5C174.887 225.353 174.927 225.233 175.007 225.14C175.101 225.047 175.221 225 175.367 225H180.727C182.327 225 183.587 225.38 184.507 226.14C185.427 226.887 185.887 227.987 185.887 229.44C185.887 230.893 185.427 231.993 184.507 232.74C183.601 233.473 182.341 233.84 180.727 233.84H177.747V238.52C177.747 238.653 177.701 238.767 177.607 238.86C177.527 238.953 177.414 239 177.267 239H175.367ZM180.627 231.62C181.401 231.62 181.994 231.44 182.407 231.08C182.821 230.707 183.027 230.16 183.027 229.44C183.027 228.747 182.827 228.207 182.427 227.82C182.027 227.42 181.427 227.22 180.627 227.22H177.707V231.62H180.627ZM191.894 239.2C190.334 239.2 189.128 238.8 188.274 238C187.421 237.187 186.961 236.08 186.894 234.68L186.874 233.8L186.894 232.92C186.961 231.533 187.428 230.433 188.294 229.62C189.161 228.807 190.361 228.4 191.894 228.4C193.428 228.4 194.628 228.807 195.494 229.62C196.361 230.433 196.828 231.533 196.894 232.92C196.908 233.08 196.914 233.373 196.914 233.8C196.914 234.227 196.908 234.52 196.894 234.68C196.828 236.08 196.368 237.187 195.514 238C194.661 238.8 193.454 239.2 191.894 239.2ZM191.894 237.22C192.601 237.22 193.148 237 193.534 236.56C193.921 236.107 194.134 235.447 194.174 234.58C194.188 234.447 194.194 234.187 194.194 233.8C194.194 233.413 194.188 233.153 194.174 233.02C194.134 232.153 193.921 231.5 193.534 231.06C193.148 230.607 192.601 230.38 191.894 230.38C191.188 230.38 190.641 230.607 190.254 231.06C189.868 231.5 189.654 232.153 189.614 233.02L189.594 233.8L189.614 234.58C189.654 235.447 189.868 236.107 190.254 236.56C190.641 237 191.188 237.22 191.894 237.22ZM199.23 239C199.097 239 198.983 238.953 198.89 238.86C198.797 238.767 198.75 238.653 198.75 238.52V225.28C198.75 225.133 198.797 225.02 198.89 224.94C198.983 224.847 199.097 224.8 199.23 224.8H200.89C201.037 224.8 201.15 224.847 201.23 224.94C201.323 225.02 201.37 225.133 201.37 225.28V238.52C201.37 238.653 201.323 238.767 201.23 238.86C201.15 238.953 201.037 239 200.89 239H199.23ZM206.643 239.2C205.963 239.2 205.336 239.067 204.763 238.8C204.203 238.52 203.756 238.147 203.423 237.68C203.103 237.213 202.943 236.7 202.943 236.14C202.943 235.233 203.31 234.5 204.043 233.94C204.776 233.38 205.783 233 207.063 232.8L209.803 232.4V231.98C209.803 231.393 209.656 230.953 209.363 230.66C209.07 230.367 208.596 230.22 207.943 230.22C207.503 230.22 207.143 230.307 206.863 230.48C206.596 230.64 206.383 230.8 206.223 230.96C206.063 231.133 205.956 231.247 205.903 231.3C205.85 231.46 205.75 231.54 205.603 231.54H204.063C203.943 231.54 203.836 231.5 203.743 231.42C203.663 231.34 203.623 231.233 203.623 231.1C203.636 230.767 203.796 230.387 204.103 229.96C204.423 229.533 204.91 229.167 205.563 228.86C206.216 228.553 207.016 228.4 207.963 228.4C209.536 228.4 210.683 228.753 211.403 229.46C212.123 230.167 212.483 231.093 212.483 232.24V238.52C212.483 238.653 212.436 238.767 212.343 238.86C212.263 238.953 212.15 239 212.003 239H210.383C210.25 239 210.136 238.953 210.043 238.86C209.95 238.767 209.903 238.653 209.903 238.52V237.74C209.61 238.167 209.19 238.52 208.643 238.8C208.11 239.067 207.443 239.2 206.643 239.2ZM207.323 237.3C208.056 237.3 208.656 237.06 209.123 236.58C209.59 236.1 209.823 235.4 209.823 234.48V234.06L207.823 234.38C207.05 234.5 206.463 234.693 206.063 234.96C205.676 235.227 205.483 235.553 205.483 235.94C205.483 236.367 205.663 236.7 206.023 236.94C206.383 237.18 206.816 237.3 207.323 237.3ZM215.129 239C214.996 239 214.882 238.953 214.789 238.86C214.696 238.767 214.649 238.653 214.649 238.52V229.1C214.649 228.967 214.696 228.853 214.789 228.76C214.882 228.653 214.996 228.6 215.129 228.6H216.749C216.896 228.6 217.016 228.647 217.109 228.74C217.202 228.833 217.249 228.953 217.249 229.1V229.92C217.569 229.493 217.969 229.167 218.449 228.94C218.942 228.713 219.502 228.6 220.129 228.6H220.949C221.096 228.6 221.209 228.647 221.289 228.74C221.382 228.82 221.429 228.933 221.429 229.08V230.52C221.429 230.653 221.382 230.767 221.289 230.86C221.209 230.953 221.096 231 220.949 231H219.389C218.762 231 218.269 231.18 217.909 231.54C217.549 231.9 217.369 232.393 217.369 233.02V238.52C217.369 238.653 217.322 238.767 217.229 238.86C217.136 238.953 217.016 239 216.869 239H215.129ZM227.069 239C226.923 239 226.803 238.96 226.709 238.88C226.616 238.787 226.569 238.667 226.569 238.52V225.5C226.569 225.353 226.616 225.233 226.709 225.14C226.803 225.047 226.923 225 227.069 225H228.649C228.929 225 229.129 225.127 229.249 225.38L233.109 232.58L237.009 225.38C237.143 225.127 237.343 225 237.609 225H239.169C239.316 225 239.436 225.047 239.529 225.14C239.623 225.233 239.669 225.353 239.669 225.5V238.52C239.669 238.667 239.623 238.787 239.529 238.88C239.436 238.96 239.316 239 239.169 239H237.489C237.356 239 237.243 238.953 237.149 238.86C237.056 238.767 237.009 238.653 237.009 238.52V229.86L234.209 235.2C234.036 235.493 233.809 235.64 233.529 235.64H232.709C232.429 235.64 232.203 235.493 232.029 235.2L229.229 229.86V238.52C229.229 238.653 229.183 238.767 229.089 238.86C229.009 238.953 228.896 239 228.749 239H227.069ZM242.54 226.88C242.407 226.88 242.294 226.833 242.2 226.74C242.107 226.647 242.06 226.533 242.06 226.4V224.96C242.06 224.827 242.107 224.713 242.2 224.62C242.294 224.527 242.407 224.48 242.54 224.48H244.36C244.494 224.48 244.607 224.527 244.7 224.62C244.807 224.713 244.86 224.827 244.86 224.96V226.4C244.86 226.533 244.814 226.647 244.72 226.74C244.627 226.833 244.507 226.88 244.36 226.88H242.54ZM242.62 239C242.487 239 242.374 238.953 242.28 238.86C242.187 238.767 242.14 238.653 242.14 238.52V229.08C242.14 228.947 242.187 228.833 242.28 228.74C242.374 228.647 242.487 228.6 242.62 228.6H244.28C244.427 228.6 244.54 228.647 244.62 228.74C244.714 228.82 244.76 228.933 244.76 229.08V238.52C244.76 238.653 244.714 238.767 244.62 238.86C244.54 238.953 244.427 239 244.28 239H242.62ZM250.874 239.2C249.527 239.2 248.494 238.767 247.774 237.9C247.054 237.033 246.667 235.88 246.614 234.44L246.594 233.78L246.614 233.14C246.654 231.74 247.034 230.6 247.754 229.72C248.487 228.84 249.527 228.4 250.874 228.4C252.167 228.4 253.194 228.84 253.954 229.72V225.28C253.954 225.133 254 225.02 254.094 224.94C254.187 224.847 254.3 224.8 254.434 224.8H256.134C256.28 224.8 256.394 224.847 256.474 224.94C256.567 225.02 256.614 225.133 256.614 225.28V238.52C256.614 238.653 256.567 238.767 256.474 238.86C256.394 238.953 256.28 239 256.134 239H254.554C254.42 239 254.307 238.953 254.214 238.86C254.12 238.767 254.074 238.653 254.074 238.52V237.78C253.314 238.727 252.247 239.2 250.874 239.2ZM251.614 237.06C252.387 237.06 252.96 236.813 253.334 236.32C253.707 235.827 253.914 235.22 253.954 234.5C253.967 234.34 253.974 234.08 253.974 233.72C253.974 233.373 253.967 233.12 253.954 232.96C253.927 232.293 253.714 231.727 253.314 231.26C252.927 230.78 252.36 230.54 251.614 230.54C250.174 230.54 249.407 231.427 249.314 233.2L249.294 233.8L249.314 234.4C249.407 236.173 250.174 237.06 251.614 237.06ZM259.359 239C259.226 239 259.113 238.953 259.019 238.86C258.926 238.767 258.879 238.653 258.879 238.52V229.08C258.879 228.947 258.926 228.833 259.019 228.74C259.113 228.647 259.226 228.6 259.359 228.6H260.999C261.133 228.6 261.246 228.647 261.339 228.74C261.433 228.833 261.479 228.947 261.479 229.08V229.9C262.266 228.9 263.379 228.4 264.819 228.4C266.046 228.4 267.019 228.807 267.739 229.62C268.459 230.42 268.819 231.513 268.819 232.9V238.52C268.819 238.653 268.773 238.767 268.679 238.86C268.599 238.953 268.486 239 268.339 239H266.579C266.446 239 266.333 238.953 266.239 238.86C266.146 238.767 266.099 238.653 266.099 238.52V233.02C266.099 232.233 265.906 231.627 265.519 231.2C265.146 230.76 264.599 230.54 263.879 230.54C263.173 230.54 262.613 230.76 262.199 231.2C261.799 231.64 261.599 232.247 261.599 233.02V238.52C261.599 238.653 261.553 238.767 261.459 238.86C261.379 238.953 261.266 239 261.119 239H259.359ZM271.36 226.88C271.227 226.88 271.113 226.833 271.02 226.74C270.927 226.647 270.88 226.533 270.88 226.4V224.96C270.88 224.827 270.927 224.713 271.02 224.62C271.113 224.527 271.227 224.48 271.36 224.48H273.18C273.313 224.48 273.427 224.527 273.52 224.62C273.627 224.713 273.68 224.827 273.68 224.96V226.4C273.68 226.533 273.633 226.647 273.54 226.74C273.447 226.833 273.327 226.88 273.18 226.88H271.36ZM271.44 239C271.307 239 271.193 238.953 271.1 238.86C271.007 238.767 270.96 238.653 270.96 238.52V229.08C270.96 228.947 271.007 228.833 271.1 228.74C271.193 228.647 271.307 228.6 271.44 228.6H273.1C273.247 228.6 273.36 228.647 273.44 228.74C273.533 228.82 273.58 228.933 273.58 229.08V238.52C273.58 238.653 273.533 238.767 273.44 238.86C273.36 238.953 273.247 239 273.1 239H271.44ZM280.533 243.4C279.347 243.4 278.387 243.2 277.653 242.8C276.92 242.413 276.4 241.967 276.093 241.46C275.787 240.953 275.633 240.52 275.633 240.16C275.633 240.04 275.68 239.933 275.773 239.84C275.88 239.747 275.993 239.7 276.113 239.7H277.853C277.973 239.7 278.073 239.727 278.153 239.78C278.247 239.847 278.32 239.96 278.373 240.12C278.507 240.48 278.72 240.78 279.013 241.02C279.32 241.273 279.793 241.4 280.433 241.4C281.233 241.4 281.82 241.22 282.193 240.86C282.58 240.5 282.773 239.88 282.773 239V237.64C282.04 238.507 281.013 238.94 279.693 238.94C278.307 238.94 277.26 238.513 276.553 237.66C275.86 236.807 275.487 235.66 275.433 234.22L275.413 233.68L275.433 233.14C275.487 231.727 275.867 230.587 276.573 229.72C277.28 228.84 278.32 228.4 279.693 228.4C280.4 228.4 281.02 228.533 281.553 228.8C282.087 229.067 282.533 229.433 282.893 229.9V229.1C282.893 228.953 282.94 228.833 283.033 228.74C283.127 228.647 283.24 228.6 283.373 228.6H284.993C285.127 228.6 285.24 228.653 285.333 228.76C285.427 228.853 285.473 228.967 285.473 229.1L285.493 238.74C285.493 240.22 285.08 241.367 284.253 242.18C283.427 242.993 282.187 243.4 280.533 243.4ZM280.433 236.82C281.193 236.82 281.76 236.58 282.133 236.1C282.52 235.62 282.733 235.033 282.773 234.34C282.787 234.233 282.793 234.013 282.793 233.68C282.793 233.36 282.787 233.147 282.773 233.04C282.733 232.333 282.52 231.74 282.133 231.26C281.76 230.78 281.193 230.54 280.433 230.54C278.993 230.54 278.233 231.427 278.153 233.2L278.133 233.68C278.133 234.627 278.3 235.387 278.633 235.96C278.98 236.533 279.58 236.82 280.433 236.82ZM288.258 239C288.124 239 288.011 238.953 287.918 238.86C287.824 238.767 287.778 238.653 287.778 238.52V225.28C287.778 225.133 287.824 225.02 287.918 224.94C288.011 224.847 288.124 224.8 288.258 224.8H290.038C290.184 224.8 290.298 224.847 290.378 224.94C290.471 225.02 290.518 225.133 290.518 225.28V229.84C291.318 228.88 292.398 228.4 293.758 228.4C294.984 228.4 295.964 228.807 296.698 229.62C297.431 230.42 297.798 231.513 297.798 232.9V238.52C297.798 238.653 297.751 238.767 297.658 238.86C297.578 238.953 297.464 239 297.318 239H295.518C295.384 239 295.271 238.953 295.178 238.86C295.084 238.767 295.038 238.653 295.038 238.52V233.02C295.038 232.233 294.844 231.627 294.458 231.2C294.084 230.76 293.538 230.54 292.818 230.54C292.111 230.54 291.551 230.76 291.138 231.2C290.724 231.64 290.518 232.247 290.518 233.02V238.52C290.518 238.653 290.471 238.767 290.378 238.86C290.298 238.953 290.184 239 290.038 239H288.258ZM304.518 239C303.305 239 302.392 238.687 301.778 238.06C301.178 237.42 300.878 236.487 300.878 235.26V230.72H299.298C299.165 230.72 299.052 230.673 298.958 230.58C298.865 230.473 298.818 230.353 298.818 230.22V229.08C298.818 228.947 298.865 228.833 298.958 228.74C299.052 228.647 299.165 228.6 299.298 228.6H300.878V225.28C300.878 225.133 300.925 225.02 301.018 224.94C301.112 224.847 301.225 224.8 301.358 224.8H302.978C303.125 224.8 303.238 224.847 303.318 224.94C303.412 225.02 303.458 225.133 303.458 225.28V228.6H305.958C306.105 228.6 306.218 228.647 306.298 228.74C306.392 228.82 306.438 228.933 306.438 229.08V230.22C306.438 230.367 306.392 230.487 306.298 230.58C306.205 230.673 306.092 230.72 305.958 230.72H303.458V235.06C303.458 235.633 303.558 236.067 303.758 236.36C303.958 236.653 304.292 236.8 304.758 236.8H306.138C306.272 236.8 306.385 236.847 306.478 236.94C306.572 237.033 306.618 237.147 306.618 237.28V238.52C306.618 238.653 306.572 238.767 306.478 238.86C306.398 238.953 306.285 239 306.138 239H304.518Z" fill="#EBCB8B"/>
<mask id="mask1" mask-type="alpha" maskUnits="userSpaceOnUse" x="120" y="38" width="480" height="160">
<rect x="120" y="38" width="480" height="160" rx="6" fill="#2E3440"/>
</mask>
<g mask="url(#mask1)">
<rect x="120.5" y="38.5" width="479" height="159" rx="5.5" stroke="#E5E9F0"/>
<rect x="120" y="38" width="120" height="120" fill="#2E3440"/>
<rect x="240" y="38" width="120" height="120" fill="#3B4252"/>
<rect x="360" y="38" width="120" height="120" fill="#434C5E"/>
<rect x="480" y="38" width="120" height="120" fill="#4C566A"/>
<path d="M152.685 180.454C152.601 180.454 152.531 180.426 152.475 180.37C152.419 180.314 152.396 180.244 152.405 180.16L152.657 178.466H151.271C151.178 178.466 151.103 178.438 151.047 178.382C150.991 178.326 150.963 178.251 150.963 178.158V177.682C150.963 177.589 150.991 177.514 151.047 177.458C151.103 177.402 151.178 177.374 151.271 177.374H152.825L153.189 174.91H151.635C151.542 174.91 151.467 174.882 151.411 174.826C151.355 174.77 151.327 174.695 151.327 174.602V174.126C151.327 174.033 151.355 173.958 151.411 173.902C151.467 173.846 151.542 173.818 151.635 173.818H153.357L153.609 172.124C153.628 172.04 153.66 171.97 153.707 171.914C153.763 171.858 153.833 171.83 153.917 171.83H154.435C154.519 171.83 154.589 171.858 154.645 171.914C154.701 171.97 154.724 172.04 154.715 172.124L154.463 173.818H156.535L156.787 172.124C156.806 172.04 156.838 171.97 156.885 171.914C156.941 171.858 157.011 171.83 157.095 171.83H157.613C157.697 171.83 157.767 171.858 157.823 171.914C157.879 171.97 157.902 172.04 157.893 172.124L157.641 173.818H158.999C159.092 173.818 159.167 173.846 159.223 173.902C159.288 173.958 159.321 174.033 159.321 174.126V174.602C159.321 174.695 159.288 174.77 159.223 174.826C159.167 174.882 159.092 174.91 158.999 174.91H157.487L157.123 177.374H158.635C158.728 177.374 158.803 177.402 158.859 177.458C158.924 177.514 158.957 177.589 158.957 177.682V178.158C158.957 178.251 158.924 178.326 158.859 178.382C158.803 178.438 158.728 178.466 158.635 178.466H156.955L156.703 180.16C156.684 180.244 156.647 180.314 156.591 180.37C156.535 180.426 156.465 180.454 156.381 180.454H155.863C155.779 180.454 155.709 180.426 155.653 180.37C155.597 180.314 155.574 180.244 155.583 180.16L155.835 178.466H153.777L153.525 180.16C153.506 180.244 153.469 180.314 153.413 180.37C153.357 180.426 153.287 180.454 153.203 180.454H152.685ZM156.003 177.374L156.367 174.91H154.309L153.945 177.374H156.003ZM160.753 181C160.659 181 160.58 180.972 160.515 180.916C160.459 180.851 160.431 180.771 160.431 180.678V180.23C160.431 180.015 160.547 179.81 160.781 179.614L163.749 176.646C164.467 176.049 164.962 175.563 165.233 175.19C165.503 174.807 165.639 174.406 165.639 173.986C165.639 173.445 165.485 173.02 165.177 172.712C164.878 172.404 164.439 172.25 163.861 172.25C163.319 172.25 162.885 172.413 162.559 172.74C162.232 173.057 162.031 173.482 161.957 174.014C161.938 174.126 161.891 174.21 161.817 174.266C161.751 174.313 161.677 174.336 161.593 174.336H160.865C160.781 174.336 160.711 174.313 160.655 174.266C160.599 174.21 160.571 174.145 160.571 174.07C160.589 173.566 160.725 173.085 160.977 172.628C161.229 172.161 161.597 171.783 162.083 171.494C162.577 171.195 163.17 171.046 163.861 171.046C164.915 171.046 165.709 171.321 166.241 171.872C166.782 172.413 167.053 173.104 167.053 173.944C167.053 174.532 166.903 175.064 166.605 175.54C166.315 176.007 165.863 176.511 165.247 177.052L162.559 179.782H166.927C167.029 179.782 167.109 179.815 167.165 179.88C167.23 179.936 167.263 180.011 167.263 180.104V180.678C167.263 180.771 167.23 180.851 167.165 180.916C167.099 180.972 167.02 181 166.927 181H160.753ZM169.221 181C169.128 181 169.049 180.972 168.983 180.916C168.927 180.851 168.899 180.771 168.899 180.678V171.536C168.899 171.433 168.927 171.354 168.983 171.298C169.049 171.233 169.128 171.2 169.221 171.2H175.003C175.097 171.2 175.171 171.233 175.227 171.298C175.293 171.354 175.325 171.433 175.325 171.536V172.068C175.325 172.161 175.297 172.241 175.241 172.306C175.185 172.362 175.106 172.39 175.003 172.39H170.243V175.456H174.695C174.789 175.456 174.863 175.489 174.919 175.554C174.985 175.61 175.017 175.689 175.017 175.792V176.31C175.017 176.403 174.985 176.483 174.919 176.548C174.863 176.604 174.789 176.632 174.695 176.632H170.243V179.81H175.115C175.218 179.81 175.297 179.838 175.353 179.894C175.409 179.95 175.437 180.029 175.437 180.132V180.678C175.437 180.771 175.405 180.851 175.339 180.916C175.283 180.972 175.209 181 175.115 181H169.221ZM180.064 181.14C179.326 181.14 178.687 181.023 178.146 180.79C177.614 180.547 177.208 180.235 176.928 179.852C176.657 179.469 176.512 179.068 176.494 178.648C176.494 178.564 176.522 178.499 176.578 178.452C176.634 178.396 176.704 178.368 176.788 178.368H177.474C177.67 178.368 177.8 178.471 177.866 178.676C177.987 179.143 178.248 179.474 178.65 179.67C179.051 179.857 179.522 179.95 180.064 179.95C180.726 179.95 181.254 179.796 181.646 179.488C182.038 179.171 182.234 178.718 182.234 178.13C182.234 177.001 181.548 176.436 180.176 176.436H178.846C178.752 176.436 178.673 176.408 178.608 176.352C178.552 176.287 178.524 176.207 178.524 176.114V175.736C178.524 175.605 178.575 175.479 178.678 175.358L181.394 172.39H177.264C177.17 172.39 177.091 172.362 177.026 172.306C176.97 172.241 176.942 172.161 176.942 172.068V171.536C176.942 171.443 176.97 171.363 177.026 171.298C177.091 171.233 177.17 171.2 177.264 171.2H182.85C182.952 171.2 183.032 171.233 183.088 171.298C183.153 171.354 183.186 171.433 183.186 171.536V172.04C183.186 172.152 183.134 172.259 183.032 172.362L180.33 175.372L180.554 175.386C181.506 175.414 182.257 175.661 182.808 176.128C183.358 176.595 183.634 177.276 183.634 178.172C183.634 178.779 183.48 179.306 183.172 179.754C182.864 180.202 182.439 180.547 181.898 180.79C181.356 181.023 180.745 181.14 180.064 181.14ZM189.634 181C189.54 181 189.461 180.972 189.396 180.916C189.34 180.851 189.312 180.771 189.312 180.678V178.662H184.776C184.682 178.662 184.603 178.634 184.538 178.578C184.482 178.513 184.454 178.433 184.454 178.34V177.78C184.454 177.64 184.505 177.5 184.608 177.36L188.808 171.438C188.854 171.363 188.924 171.307 189.018 171.27C189.111 171.223 189.214 171.2 189.326 171.2H190.334C190.427 171.2 190.502 171.233 190.558 171.298C190.623 171.354 190.656 171.429 190.656 171.522V177.444H191.916C192.009 177.444 192.088 177.477 192.154 177.542C192.219 177.598 192.252 177.673 192.252 177.766V178.34C192.252 178.433 192.219 178.513 192.154 178.578C192.098 178.634 192.023 178.662 191.93 178.662H190.656V180.678C190.656 180.771 190.623 180.851 190.558 180.916C190.502 180.972 190.427 181 190.334 181H189.634ZM189.326 177.472V172.67L185.952 177.472H189.326ZM198.049 181C197.956 181 197.876 180.972 197.811 180.916C197.755 180.851 197.727 180.771 197.727 180.678V178.662H193.191C193.098 178.662 193.018 178.634 192.953 178.578C192.897 178.513 192.869 178.433 192.869 178.34V177.78C192.869 177.64 192.92 177.5 193.023 177.36L197.223 171.438C197.27 171.363 197.34 171.307 197.433 171.27C197.526 171.223 197.629 171.2 197.741 171.2H198.749C198.842 171.2 198.917 171.233 198.973 171.298C199.038 171.354 199.071 171.429 199.071 171.522V177.444H200.331C200.424 177.444 200.504 177.477 200.569 177.542C200.634 177.598 200.667 177.673 200.667 177.766V178.34C200.667 178.433 200.634 178.513 200.569 178.578C200.513 178.634 200.438 178.662 200.345 178.662H199.071V180.678C199.071 180.771 199.038 180.851 198.973 180.916C198.917 180.972 198.842 181 198.749 181H198.049ZM197.741 177.472V172.67L194.367 177.472H197.741ZM205.288 181.14C204.084 181.14 203.202 180.79 202.642 180.09C202.082 179.39 201.784 178.471 201.746 177.332C201.737 177.08 201.732 176.674 201.732 176.114C201.732 175.535 201.737 175.115 201.746 174.854C201.774 173.734 202.073 172.824 202.642 172.124C203.212 171.415 204.094 171.06 205.288 171.06C206.492 171.06 207.379 171.415 207.948 172.124C208.518 172.824 208.816 173.734 208.844 174.854C208.863 175.377 208.872 175.797 208.872 176.114C208.872 176.422 208.863 176.828 208.844 177.332C208.807 178.471 208.508 179.39 207.948 180.09C207.388 180.79 206.502 181.14 205.288 181.14ZM205.288 179.936C205.988 179.936 206.516 179.703 206.87 179.236C207.234 178.769 207.426 178.111 207.444 177.262C207.463 176.721 207.472 176.329 207.472 176.086C207.472 175.825 207.463 175.442 207.444 174.938C207.426 174.098 207.239 173.44 206.884 172.964C206.53 172.488 205.998 172.25 205.288 172.25C204.588 172.25 204.056 172.488 203.692 172.964C203.338 173.44 203.151 174.098 203.132 174.938L203.118 176.086L203.132 177.262C203.151 178.111 203.338 178.769 203.692 179.236C204.056 179.703 204.588 179.936 205.288 179.936Z" fill="#4C566A"/>
<path d="M272.781 180.454C272.697 180.454 272.627 180.426 272.571 180.37C272.515 180.314 272.491 180.244 272.501 180.16L272.753 178.466H271.367C271.273 178.466 271.199 178.438 271.143 178.382C271.087 178.326 271.059 178.251 271.059 178.158V177.682C271.059 177.589 271.087 177.514 271.143 177.458C271.199 177.402 271.273 177.374 271.367 177.374H272.921L273.285 174.91H271.731C271.637 174.91 271.563 174.882 271.507 174.826C271.451 174.77 271.423 174.695 271.423 174.602V174.126C271.423 174.033 271.451 173.958 271.507 173.902C271.563 173.846 271.637 173.818 271.731 173.818H273.453L273.705 172.124C273.723 172.04 273.756 171.97 273.803 171.914C273.859 171.858 273.929 171.83 274.013 171.83H274.531C274.615 171.83 274.685 171.858 274.741 171.914C274.797 171.97 274.82 172.04 274.811 172.124L274.559 173.818H276.631L276.883 172.124C276.901 172.04 276.934 171.97 276.981 171.914C277.037 171.858 277.107 171.83 277.191 171.83H277.709C277.793 171.83 277.863 171.858 277.919 171.914C277.975 171.97 277.998 172.04 277.989 172.124L277.737 173.818H279.095C279.188 173.818 279.263 173.846 279.319 173.902C279.384 173.958 279.417 174.033 279.417 174.126V174.602C279.417 174.695 279.384 174.77 279.319 174.826C279.263 174.882 279.188 174.91 279.095 174.91H277.583L277.219 177.374H278.731C278.824 177.374 278.899 177.402 278.955 177.458C279.02 177.514 279.053 177.589 279.053 177.682V178.158C279.053 178.251 279.02 178.326 278.955 178.382C278.899 178.438 278.824 178.466 278.731 178.466H277.051L276.799 180.16C276.78 180.244 276.743 180.314 276.687 180.37C276.631 180.426 276.561 180.454 276.477 180.454H275.959C275.875 180.454 275.805 180.426 275.749 180.37C275.693 180.314 275.669 180.244 275.679 180.16L275.931 178.466H273.873L273.621 180.16C273.602 180.244 273.565 180.314 273.509 180.37C273.453 180.426 273.383 180.454 273.299 180.454H272.781ZM276.099 177.374L276.463 174.91H274.405L274.041 177.374H276.099ZM284.012 181.14C283.275 181.14 282.636 181.023 282.094 180.79C281.562 180.547 281.156 180.235 280.876 179.852C280.606 179.469 280.461 179.068 280.442 178.648C280.442 178.564 280.47 178.499 280.526 178.452C280.582 178.396 280.652 178.368 280.736 178.368H281.422C281.618 178.368 281.749 178.471 281.814 178.676C281.936 179.143 282.197 179.474 282.598 179.67C283 179.857 283.471 179.95 284.012 179.95C284.675 179.95 285.202 179.796 285.594 179.488C285.986 179.171 286.182 178.718 286.182 178.13C286.182 177.001 285.496 176.436 284.124 176.436H282.794C282.701 176.436 282.622 176.408 282.556 176.352C282.5 176.287 282.472 176.207 282.472 176.114V175.736C282.472 175.605 282.524 175.479 282.626 175.358L285.342 172.39H281.212C281.119 172.39 281.04 172.362 280.974 172.306C280.918 172.241 280.89 172.161 280.89 172.068V171.536C280.89 171.443 280.918 171.363 280.974 171.298C281.04 171.233 281.119 171.2 281.212 171.2H286.798C286.901 171.2 286.98 171.233 287.036 171.298C287.102 171.354 287.134 171.433 287.134 171.536V172.04C287.134 172.152 287.083 172.259 286.98 172.362L284.278 175.372L284.502 175.386C285.454 175.414 286.206 175.661 286.756 176.128C287.307 176.595 287.582 177.276 287.582 178.172C287.582 178.779 287.428 179.306 287.12 179.754C286.812 180.202 286.388 180.547 285.846 180.79C285.305 181.023 284.694 181.14 284.012 181.14ZM289.508 181C289.415 181 289.336 180.972 289.27 180.916C289.214 180.851 289.186 180.771 289.186 180.678V171.536C289.186 171.433 289.214 171.354 289.27 171.298C289.336 171.233 289.415 171.2 289.508 171.2H293.344C294.343 171.2 295.094 171.438 295.598 171.914C296.102 172.39 296.354 173.015 296.354 173.79C296.354 174.313 296.233 174.747 295.99 175.092C295.757 175.437 295.477 175.689 295.15 175.848C295.542 176.044 295.874 176.347 296.144 176.758C296.415 177.169 296.55 177.64 296.55 178.172C296.55 178.695 296.429 179.171 296.186 179.6C295.953 180.029 295.603 180.37 295.136 180.622C294.67 180.874 294.11 181 293.456 181H289.508ZM293.134 175.344C293.722 175.344 294.17 175.209 294.478 174.938C294.796 174.667 294.954 174.289 294.954 173.804C294.954 173.328 294.8 172.964 294.492 172.712C294.184 172.46 293.732 172.334 293.134 172.334H290.558V175.344H293.134ZM293.274 179.866C293.862 179.866 294.32 179.707 294.646 179.39C294.982 179.073 295.15 178.667 295.15 178.172C295.15 177.659 294.982 177.248 294.646 176.94C294.32 176.623 293.862 176.464 293.274 176.464H290.558V179.866H293.274ZM302.654 181C302.561 181 302.481 180.972 302.416 180.916C302.36 180.851 302.332 180.771 302.332 180.678V178.662H297.796C297.703 178.662 297.623 178.634 297.558 178.578C297.502 178.513 297.474 178.433 297.474 178.34V177.78C297.474 177.64 297.525 177.5 297.628 177.36L301.828 171.438C301.875 171.363 301.945 171.307 302.038 171.27C302.131 171.223 302.234 171.2 302.346 171.2H303.354C303.447 171.2 303.522 171.233 303.578 171.298C303.643 171.354 303.676 171.429 303.676 171.522V177.444H304.936C305.029 177.444 305.109 177.477 305.174 177.542C305.239 177.598 305.272 177.673 305.272 177.766V178.34C305.272 178.433 305.239 178.513 305.174 178.578C305.118 178.634 305.043 178.662 304.95 178.662H303.676V180.678C303.676 180.771 303.643 180.851 303.578 180.916C303.522 180.972 303.447 181 303.354 181H302.654ZM302.346 177.472V172.67L298.972 177.472H302.346ZM306.463 181C306.37 181 306.291 180.972 306.225 180.916C306.169 180.851 306.141 180.771 306.141 180.678V180.23C306.141 180.015 306.258 179.81 306.491 179.614L309.459 176.646C310.178 176.049 310.673 175.563 310.943 175.19C311.214 174.807 311.349 174.406 311.349 173.986C311.349 173.445 311.195 173.02 310.887 172.712C310.589 172.404 310.15 172.25 309.571 172.25C309.03 172.25 308.596 172.413 308.269 172.74C307.943 173.057 307.742 173.482 307.667 174.014C307.649 174.126 307.602 174.21 307.527 174.266C307.462 174.313 307.387 174.336 307.303 174.336H306.575C306.491 174.336 306.421 174.313 306.365 174.266C306.309 174.21 306.281 174.145 306.281 174.07C306.3 173.566 306.435 173.085 306.687 172.628C306.939 172.161 307.308 171.783 307.793 171.494C308.288 171.195 308.881 171.046 309.571 171.046C310.626 171.046 311.419 171.321 311.951 171.872C312.493 172.413 312.763 173.104 312.763 173.944C312.763 174.532 312.614 175.064 312.315 175.54C312.026 176.007 311.573 176.511 310.957 177.052L308.269 179.782H312.637C312.74 179.782 312.819 179.815 312.875 179.88C312.941 179.936 312.973 180.011 312.973 180.104V180.678C312.973 180.771 312.941 180.851 312.875 180.916C312.81 180.972 312.731 181 312.637 181H306.463ZM317.48 181.14C316.771 181.14 316.159 181.014 315.646 180.762C315.133 180.51 314.736 180.179 314.456 179.768C314.185 179.357 314.041 178.919 314.022 178.452V178.424C314.022 178.349 314.05 178.289 314.106 178.242C314.162 178.195 314.227 178.172 314.302 178.172H315.058C315.254 178.172 315.38 178.275 315.436 178.48C315.567 178.975 315.819 179.343 316.192 179.586C316.565 179.829 316.995 179.95 317.48 179.95C318.105 179.95 318.623 179.763 319.034 179.39C319.454 179.007 319.664 178.48 319.664 177.808C319.664 177.201 319.454 176.711 319.034 176.338C318.623 175.965 318.105 175.778 317.48 175.778C317.144 175.778 316.873 175.825 316.668 175.918C316.463 176.002 316.257 176.123 316.052 176.282C315.94 176.366 315.842 176.431 315.758 176.478C315.683 176.515 315.599 176.534 315.506 176.534H314.778C314.694 176.534 314.619 176.506 314.554 176.45C314.489 176.385 314.461 176.31 314.47 176.226L314.918 171.55C314.927 171.438 314.96 171.354 315.016 171.298C315.081 171.233 315.165 171.2 315.268 171.2H320.154C320.247 171.2 320.322 171.233 320.378 171.298C320.443 171.354 320.476 171.429 320.476 171.522V172.068C320.476 172.161 320.443 172.241 320.378 172.306C320.322 172.362 320.247 172.39 320.154 172.39H316.122L315.856 175.148C316.36 174.831 316.967 174.672 317.676 174.672C318.292 174.672 318.857 174.798 319.37 175.05C319.893 175.302 320.303 175.666 320.602 176.142C320.91 176.618 321.064 177.178 321.064 177.822C321.064 178.513 320.91 179.11 320.602 179.614C320.303 180.109 319.883 180.487 319.342 180.748C318.801 181.009 318.18 181.14 317.48 181.14ZM322.433 181C322.339 181 322.26 180.972 322.195 180.916C322.139 180.851 322.111 180.771 322.111 180.678V180.23C322.111 180.015 322.227 179.81 322.461 179.614L325.429 176.646C326.147 176.049 326.642 175.563 326.913 175.19C327.183 174.807 327.319 174.406 327.319 173.986C327.319 173.445 327.165 173.02 326.857 172.712C326.558 172.404 326.119 172.25 325.541 172.25C324.999 172.25 324.565 172.413 324.239 172.74C323.912 173.057 323.711 173.482 323.637 174.014C323.618 174.126 323.571 174.21 323.497 174.266C323.431 174.313 323.357 174.336 323.273 174.336H322.545C322.461 174.336 322.391 174.313 322.335 174.266C322.279 174.21 322.251 174.145 322.251 174.07C322.269 173.566 322.405 173.085 322.657 172.628C322.909 172.161 323.277 171.783 323.763 171.494C324.257 171.195 324.85 171.046 325.541 171.046C326.595 171.046 327.389 171.321 327.921 171.872C328.462 172.413 328.733 173.104 328.733 173.944C328.733 174.532 328.583 175.064 328.285 175.54C327.995 176.007 327.543 176.511 326.927 177.052L324.239 179.782H328.607C328.709 179.782 328.789 179.815 328.845 179.88C328.91 179.936 328.943 180.011 328.943 180.104V180.678C328.943 180.771 328.91 180.851 328.845 180.916C328.779 180.972 328.7 181 328.607 181H322.433Z" fill="#4C566A"/>
<path d="M392.418 180.454C392.334 180.454 392.264 180.426 392.208 180.37C392.152 180.314 392.129 180.244 392.138 180.16L392.39 178.466H391.004C390.911 178.466 390.836 178.438 390.78 178.382C390.724 178.326 390.696 178.251 390.696 178.158V177.682C390.696 177.589 390.724 177.514 390.78 177.458C390.836 177.402 390.911 177.374 391.004 177.374H392.558L392.922 174.91H391.368C391.275 174.91 391.2 174.882 391.144 174.826C391.088 174.77 391.06 174.695 391.06 174.602V174.126C391.06 174.033 391.088 173.958 391.144 173.902C391.2 173.846 391.275 173.818 391.368 173.818H393.09L393.342 172.124C393.361 172.04 393.394 171.97 393.44 171.914C393.496 171.858 393.566 171.83 393.65 171.83H394.168C394.252 171.83 394.322 171.858 394.378 171.914C394.434 171.97 394.458 172.04 394.448 172.124L394.196 173.818H396.268L396.52 172.124C396.539 172.04 396.572 171.97 396.618 171.914C396.674 171.858 396.744 171.83 396.828 171.83H397.346C397.43 171.83 397.5 171.858 397.556 171.914C397.612 171.97 397.636 172.04 397.626 172.124L397.374 173.818H398.732C398.826 173.818 398.9 173.846 398.956 173.902C399.022 173.958 399.054 174.033 399.054 174.126V174.602C399.054 174.695 399.022 174.77 398.956 174.826C398.9 174.882 398.826 174.91 398.732 174.91H397.22L396.856 177.374H398.368C398.462 177.374 398.536 177.402 398.592 177.458C398.658 177.514 398.69 177.589 398.69 177.682V178.158C398.69 178.251 398.658 178.326 398.592 178.382C398.536 178.438 398.462 178.466 398.368 178.466H396.688L396.436 180.16C396.418 180.244 396.38 180.314 396.324 180.37C396.268 180.426 396.198 180.454 396.114 180.454H395.596C395.512 180.454 395.442 180.426 395.386 180.37C395.33 180.314 395.307 180.244 395.316 180.16L395.568 178.466H393.51L393.258 180.16C393.24 180.244 393.202 180.314 393.146 180.37C393.09 180.426 393.02 180.454 392.936 180.454H392.418ZM395.736 177.374L396.1 174.91H394.042L393.678 177.374H395.736ZM405.092 181C404.999 181 404.919 180.972 404.854 180.916C404.798 180.851 404.77 180.771 404.77 180.678V178.662H400.234C400.141 178.662 400.061 178.634 399.996 178.578C399.94 178.513 399.912 178.433 399.912 178.34V177.78C399.912 177.64 399.963 177.5 400.066 177.36L404.266 171.438C404.313 171.363 404.383 171.307 404.476 171.27C404.569 171.223 404.672 171.2 404.784 171.2H405.792C405.885 171.2 405.96 171.233 406.016 171.298C406.081 171.354 406.114 171.429 406.114 171.522V177.444H407.374C407.467 177.444 407.547 177.477 407.612 177.542C407.677 177.598 407.71 177.673 407.71 177.766V178.34C407.71 178.433 407.677 178.513 407.612 178.578C407.556 178.634 407.481 178.662 407.388 178.662H406.114V180.678C406.114 180.771 406.081 180.851 406.016 180.916C405.96 180.972 405.885 181 405.792 181H405.092ZM404.784 177.472V172.67L401.41 177.472H404.784ZM412.065 181.14C411.328 181.14 410.689 181.023 410.147 180.79C409.615 180.547 409.209 180.235 408.929 179.852C408.659 179.469 408.514 179.068 408.495 178.648C408.495 178.564 408.523 178.499 408.579 178.452C408.635 178.396 408.705 178.368 408.789 178.368H409.475C409.671 178.368 409.802 178.471 409.867 178.676C409.989 179.143 410.25 179.474 410.651 179.67C411.053 179.857 411.524 179.95 412.065 179.95C412.728 179.95 413.255 179.796 413.647 179.488C414.039 179.171 414.235 178.718 414.235 178.13C414.235 177.001 413.549 176.436 412.177 176.436H410.847C410.754 176.436 410.675 176.408 410.609 176.352C410.553 176.287 410.525 176.207 410.525 176.114V175.736C410.525 175.605 410.577 175.479 410.679 175.358L413.395 172.39H409.265C409.172 172.39 409.093 172.362 409.027 172.306C408.971 172.241 408.943 172.161 408.943 172.068V171.536C408.943 171.443 408.971 171.363 409.027 171.298C409.093 171.233 409.172 171.2 409.265 171.2H414.851C414.954 171.2 415.033 171.233 415.089 171.298C415.155 171.354 415.187 171.433 415.187 171.536V172.04C415.187 172.152 415.136 172.259 415.033 172.362L412.331 175.372L412.555 175.386C413.507 175.414 414.259 175.661 414.809 176.128C415.36 176.595 415.635 177.276 415.635 178.172C415.635 178.779 415.481 179.306 415.173 179.754C414.865 180.202 414.441 180.547 413.899 180.79C413.358 181.023 412.747 181.14 412.065 181.14ZM421.635 181C421.542 181 421.463 180.972 421.397 180.916C421.341 180.851 421.313 180.771 421.313 180.678V178.662H416.777C416.684 178.662 416.605 178.634 416.539 178.578C416.483 178.513 416.455 178.433 416.455 178.34V177.78C416.455 177.64 416.507 177.5 416.609 177.36L420.809 171.438C420.856 171.363 420.926 171.307 421.019 171.27C421.113 171.223 421.215 171.2 421.327 171.2H422.335C422.429 171.2 422.503 171.233 422.559 171.298C422.625 171.354 422.657 171.429 422.657 171.522V177.444H423.917C424.011 177.444 424.09 177.477 424.155 177.542C424.221 177.598 424.253 177.673 424.253 177.766V178.34C424.253 178.433 424.221 178.513 424.155 178.578C424.099 178.634 424.025 178.662 423.931 178.662H422.657V180.678C422.657 180.771 422.625 180.851 422.559 180.916C422.503 180.972 422.429 181 422.335 181H421.635ZM421.327 177.472V172.67L417.953 177.472H421.327ZM429.183 181.14C427.932 181.14 426.98 180.804 426.327 180.132C425.683 179.46 425.337 178.531 425.291 177.346C425.281 177.094 425.277 176.683 425.277 176.114C425.277 175.535 425.281 175.115 425.291 174.854C425.337 173.678 425.687 172.754 426.341 172.082C426.994 171.401 427.941 171.06 429.183 171.06C430.013 171.06 430.718 171.209 431.297 171.508C431.875 171.797 432.314 172.18 432.613 172.656C432.911 173.132 433.075 173.641 433.103 174.182V174.21C433.103 174.285 433.07 174.35 433.005 174.406C432.949 174.453 432.883 174.476 432.809 174.476H432.039C431.852 174.476 431.735 174.369 431.689 174.154C431.53 173.454 431.245 172.964 430.835 172.684C430.424 172.395 429.873 172.25 429.183 172.25C427.577 172.25 426.747 173.141 426.691 174.924C426.681 175.176 426.677 175.563 426.677 176.086C426.677 176.609 426.681 177.005 426.691 177.276C426.747 179.059 427.577 179.95 429.183 179.95C429.873 179.95 430.424 179.81 430.835 179.53C431.255 179.241 431.539 178.746 431.689 178.046C431.717 177.925 431.759 177.841 431.815 177.794C431.871 177.747 431.945 177.724 432.039 177.724H432.809C432.893 177.724 432.963 177.752 433.019 177.808C433.084 177.855 433.112 177.92 433.103 178.004C433.075 178.555 432.911 179.068 432.613 179.544C432.314 180.02 431.875 180.407 431.297 180.706C430.718 180.995 430.013 181.14 429.183 181.14ZM437.569 181.14C436.86 181.14 436.248 181.014 435.735 180.762C435.222 180.51 434.825 180.179 434.545 179.768C434.274 179.357 434.13 178.919 434.111 178.452V178.424C434.111 178.349 434.139 178.289 434.195 178.242C434.251 178.195 434.316 178.172 434.391 178.172H435.147C435.343 178.172 435.469 178.275 435.525 178.48C435.656 178.975 435.908 179.343 436.281 179.586C436.654 179.829 437.084 179.95 437.569 179.95C438.194 179.95 438.712 179.763 439.123 179.39C439.543 179.007 439.753 178.48 439.753 177.808C439.753 177.201 439.543 176.711 439.123 176.338C438.712 175.965 438.194 175.778 437.569 175.778C437.233 175.778 436.962 175.825 436.757 175.918C436.552 176.002 436.346 176.123 436.141 176.282C436.029 176.366 435.931 176.431 435.847 176.478C435.772 176.515 435.688 176.534 435.595 176.534H434.867C434.783 176.534 434.708 176.506 434.643 176.45C434.578 176.385 434.55 176.31 434.559 176.226L435.007 171.55C435.016 171.438 435.049 171.354 435.105 171.298C435.17 171.233 435.254 171.2 435.357 171.2H440.243C440.336 171.2 440.411 171.233 440.467 171.298C440.532 171.354 440.565 171.429 440.565 171.522V172.068C440.565 172.161 440.532 172.241 440.467 172.306C440.411 172.362 440.336 172.39 440.243 172.39H436.211L435.945 175.148C436.449 174.831 437.056 174.672 437.765 174.672C438.381 174.672 438.946 174.798 439.459 175.05C439.982 175.302 440.392 175.666 440.691 176.142C440.999 176.618 441.153 177.178 441.153 177.822C441.153 178.513 440.999 179.11 440.691 179.614C440.392 180.109 439.972 180.487 439.431 180.748C438.89 181.009 438.269 181.14 437.569 181.14ZM443.054 181C442.96 181 442.881 180.972 442.816 180.916C442.76 180.851 442.732 180.771 442.732 180.678V171.536C442.732 171.433 442.76 171.354 442.816 171.298C442.881 171.233 442.96 171.2 443.054 171.2H448.836C448.929 171.2 449.004 171.233 449.06 171.298C449.125 171.354 449.158 171.433 449.158 171.536V172.068C449.158 172.161 449.13 172.241 449.074 172.306C449.018 172.362 448.938 172.39 448.836 172.39H444.076V175.456H448.528C448.621 175.456 448.696 175.489 448.752 175.554C448.817 175.61 448.85 175.689 448.85 175.792V176.31C448.85 176.403 448.817 176.483 448.752 176.548C448.696 176.604 448.621 176.632 448.528 176.632H444.076V179.81H448.948C449.05 179.81 449.13 179.838 449.186 179.894C449.242 179.95 449.27 180.029 449.27 180.132V180.678C449.27 180.771 449.237 180.851 449.172 180.916C449.116 180.972 449.041 181 448.948 181H443.054Z" fill="#4C566A"/>
<path d="M512.09 180.454C512.006 180.454 511.936 180.426 511.88 180.37C511.824 180.314 511.801 180.244 511.81 180.16L512.062 178.466H510.676C510.583 178.466 510.508 178.438 510.452 178.382C510.396 178.326 510.368 178.251 510.368 178.158V177.682C510.368 177.589 510.396 177.514 510.452 177.458C510.508 177.402 510.583 177.374 510.676 177.374H512.23L512.594 174.91H511.04C510.947 174.91 510.872 174.882 510.816 174.826C510.76 174.77 510.732 174.695 510.732 174.602V174.126C510.732 174.033 510.76 173.958 510.816 173.902C510.872 173.846 510.947 173.818 511.04 173.818H512.762L513.014 172.124C513.033 172.04 513.065 171.97 513.112 171.914C513.168 171.858 513.238 171.83 513.322 171.83H513.84C513.924 171.83 513.994 171.858 514.05 171.914C514.106 171.97 514.129 172.04 514.12 172.124L513.868 173.818H515.94L516.192 172.124C516.211 172.04 516.243 171.97 516.29 171.914C516.346 171.858 516.416 171.83 516.5 171.83H517.018C517.102 171.83 517.172 171.858 517.228 171.914C517.284 171.97 517.307 172.04 517.298 172.124L517.046 173.818H518.404C518.497 173.818 518.572 173.846 518.628 173.902C518.693 173.958 518.726 174.033 518.726 174.126V174.602C518.726 174.695 518.693 174.77 518.628 174.826C518.572 174.882 518.497 174.91 518.404 174.91H516.892L516.528 177.374H518.04C518.133 177.374 518.208 177.402 518.264 177.458C518.329 177.514 518.362 177.589 518.362 177.682V178.158C518.362 178.251 518.329 178.326 518.264 178.382C518.208 178.438 518.133 178.466 518.04 178.466H516.36L516.108 180.16C516.089 180.244 516.052 180.314 515.996 180.37C515.94 180.426 515.87 180.454 515.786 180.454H515.268C515.184 180.454 515.114 180.426 515.058 180.37C515.002 180.314 514.979 180.244 514.988 180.16L515.24 178.466H513.182L512.93 180.16C512.911 180.244 512.874 180.314 512.818 180.37C512.762 180.426 512.692 180.454 512.608 180.454H512.09ZM515.408 177.374L515.772 174.91H513.714L513.35 177.374H515.408ZM524.764 181C524.671 181 524.591 180.972 524.526 180.916C524.47 180.851 524.442 180.771 524.442 180.678V178.662H519.906C519.813 178.662 519.733 178.634 519.668 178.578C519.612 178.513 519.584 178.433 519.584 178.34V177.78C519.584 177.64 519.635 177.5 519.738 177.36L523.938 171.438C523.985 171.363 524.055 171.307 524.148 171.27C524.241 171.223 524.344 171.2 524.456 171.2H525.464C525.557 171.2 525.632 171.233 525.688 171.298C525.753 171.354 525.786 171.429 525.786 171.522V177.444H527.046C527.139 177.444 527.219 177.477 527.284 177.542C527.349 177.598 527.382 177.673 527.382 177.766V178.34C527.382 178.433 527.349 178.513 527.284 178.578C527.228 178.634 527.153 178.662 527.06 178.662H525.786V180.678C525.786 180.771 525.753 180.851 525.688 180.916C525.632 180.972 525.557 181 525.464 181H524.764ZM524.456 177.472V172.67L521.082 177.472H524.456ZM532.311 181.14C531.06 181.14 530.108 180.804 529.455 180.132C528.811 179.46 528.466 178.531 528.419 177.346C528.41 177.094 528.405 176.683 528.405 176.114C528.405 175.535 528.41 175.115 528.419 174.854C528.466 173.678 528.816 172.754 529.469 172.082C530.122 171.401 531.07 171.06 532.311 171.06C533.142 171.06 533.846 171.209 534.425 171.508C535.004 171.797 535.442 172.18 535.741 172.656C536.04 173.132 536.203 173.641 536.231 174.182V174.21C536.231 174.285 536.198 174.35 536.133 174.406C536.077 174.453 536.012 174.476 535.937 174.476H535.167C534.98 174.476 534.864 174.369 534.817 174.154C534.658 173.454 534.374 172.964 533.963 172.684C533.552 172.395 533.002 172.25 532.311 172.25C530.706 172.25 529.875 173.141 529.819 174.924C529.81 175.176 529.805 175.563 529.805 176.086C529.805 176.609 529.81 177.005 529.819 177.276C529.875 179.059 530.706 179.95 532.311 179.95C533.002 179.95 533.552 179.81 533.963 179.53C534.383 179.241 534.668 178.746 534.817 178.046C534.845 177.925 534.887 177.841 534.943 177.794C534.999 177.747 535.074 177.724 535.167 177.724H535.937C536.021 177.724 536.091 177.752 536.147 177.808C536.212 177.855 536.24 177.92 536.231 178.004C536.203 178.555 536.04 179.068 535.741 179.544C535.442 180.02 535.004 180.407 534.425 180.706C533.846 180.995 533.142 181.14 532.311 181.14ZM540.697 181.14C539.988 181.14 539.377 181.014 538.863 180.762C538.35 180.51 537.953 180.179 537.673 179.768C537.403 179.357 537.258 178.919 537.239 178.452V178.424C537.239 178.349 537.267 178.289 537.323 178.242C537.379 178.195 537.445 178.172 537.519 178.172H538.275C538.471 178.172 538.597 178.275 538.653 178.48C538.784 178.975 539.036 179.343 539.409 179.586C539.783 179.829 540.212 179.95 540.697 179.95C541.323 179.95 541.841 179.763 542.251 179.39C542.671 179.007 542.881 178.48 542.881 177.808C542.881 177.201 542.671 176.711 542.251 176.338C541.841 175.965 541.323 175.778 540.697 175.778C540.361 175.778 540.091 175.825 539.885 175.918C539.68 176.002 539.475 176.123 539.269 176.282C539.157 176.366 539.059 176.431 538.975 176.478C538.901 176.515 538.817 176.534 538.723 176.534H537.995C537.911 176.534 537.837 176.506 537.771 176.45C537.706 176.385 537.678 176.31 537.687 176.226L538.135 171.55C538.145 171.438 538.177 171.354 538.233 171.298C538.299 171.233 538.383 171.2 538.485 171.2H543.371C543.465 171.2 543.539 171.233 543.595 171.298C543.661 171.354 543.693 171.429 543.693 171.522V172.068C543.693 172.161 543.661 172.241 543.595 172.306C543.539 172.362 543.465 172.39 543.371 172.39H539.339L539.073 175.148C539.577 174.831 540.184 174.672 540.893 174.672C541.509 174.672 542.074 174.798 542.587 175.05C543.11 175.302 543.521 175.666 543.819 176.142C544.127 176.618 544.281 177.178 544.281 177.822C544.281 178.513 544.127 179.11 543.819 179.614C543.521 180.109 543.101 180.487 542.559 180.748C542.018 181.009 541.397 181.14 540.697 181.14ZM548.954 181.14C548.207 181.14 547.559 180.991 547.008 180.692C546.457 180.384 546.037 179.973 545.748 179.46C545.459 178.947 545.314 178.387 545.314 177.78C545.314 177.285 545.412 176.819 545.608 176.38C545.813 175.932 546.042 175.535 546.294 175.19L548.954 171.48C548.963 171.471 548.991 171.438 549.038 171.382C549.075 171.326 549.127 171.284 549.192 171.256C549.257 171.219 549.332 171.2 549.416 171.2H550.158C550.242 171.2 550.307 171.233 550.354 171.298C550.41 171.354 550.438 171.424 550.438 171.508C550.438 171.573 550.419 171.634 550.382 171.69L548.338 174.546C548.543 174.481 548.809 174.448 549.136 174.448C549.808 174.457 550.401 174.611 550.914 174.91C551.437 175.209 551.838 175.61 552.118 176.114C552.407 176.618 552.552 177.169 552.552 177.766C552.552 178.363 552.407 178.923 552.118 179.446C551.838 179.959 551.423 180.37 550.872 180.678C550.331 180.986 549.691 181.14 548.954 181.14ZM548.94 179.95C549.341 179.95 549.71 179.866 550.046 179.698C550.391 179.53 550.662 179.283 550.858 178.956C551.063 178.62 551.166 178.223 551.166 177.766C551.166 177.318 551.063 176.931 550.858 176.604C550.662 176.277 550.391 176.03 550.046 175.862C549.71 175.694 549.341 175.61 548.94 175.61C548.548 175.61 548.179 175.694 547.834 175.862C547.498 176.03 547.227 176.277 547.022 176.604C546.817 176.931 546.714 177.318 546.714 177.766C546.714 178.223 546.817 178.62 547.022 178.956C547.227 179.283 547.498 179.53 547.834 179.698C548.17 179.866 548.539 179.95 548.94 179.95ZM557.109 181.14C556.363 181.14 555.714 180.991 555.163 180.692C554.613 180.384 554.193 179.973 553.903 179.46C553.614 178.947 553.469 178.387 553.469 177.78C553.469 177.285 553.567 176.819 553.763 176.38C553.969 175.932 554.197 175.535 554.449 175.19L557.109 171.48C557.119 171.471 557.147 171.438 557.193 171.382C557.231 171.326 557.282 171.284 557.347 171.256C557.413 171.219 557.487 171.2 557.571 171.2H558.313C558.397 171.2 558.463 171.233 558.509 171.298C558.565 171.354 558.593 171.424 558.593 171.508C558.593 171.573 558.575 171.634 558.537 171.69L556.493 174.546C556.699 174.481 556.965 174.448 557.291 174.448C557.963 174.457 558.556 174.611 559.069 174.91C559.592 175.209 559.993 175.61 560.273 176.114C560.563 176.618 560.707 177.169 560.707 177.766C560.707 178.363 560.563 178.923 560.273 179.446C559.993 179.959 559.578 180.37 559.027 180.678C558.486 180.986 557.847 181.14 557.109 181.14ZM557.095 179.95C557.497 179.95 557.865 179.866 558.201 179.698C558.547 179.53 558.817 179.283 559.013 178.956C559.219 178.62 559.321 178.223 559.321 177.766C559.321 177.318 559.219 176.931 559.013 176.604C558.817 176.277 558.547 176.03 558.201 175.862C557.865 175.694 557.497 175.61 557.095 175.61C556.703 175.61 556.335 175.694 555.989 175.862C555.653 176.03 555.383 176.277 555.177 176.604C554.972 176.931 554.869 177.318 554.869 177.766C554.869 178.223 554.972 178.62 555.177 178.956C555.383 179.283 555.653 179.53 555.989 179.698C556.325 179.866 556.694 179.95 557.095 179.95ZM561.513 181C561.438 181 561.373 180.972 561.317 180.916C561.261 180.86 561.233 180.795 561.233 180.72C561.233 180.645 561.238 180.594 561.247 180.566L564.719 171.508C564.794 171.303 564.943 171.2 565.167 171.2H566.119C566.343 171.2 566.492 171.303 566.567 171.508L570.025 180.566L570.053 180.72C570.053 180.795 570.025 180.86 569.969 180.916C569.913 180.972 569.848 181 569.773 181H569.059C568.956 181 568.877 180.977 568.821 180.93C568.765 180.874 568.728 180.818 568.709 180.762L567.939 178.774H563.347L562.577 180.762C562.558 180.818 562.516 180.874 562.451 180.93C562.395 180.977 562.32 181 562.227 181H561.513ZM567.533 177.57L565.643 172.6L563.753 177.57H567.533Z" fill="#4C566A"/>
</g>
<path d="M311.112 19C310.979 19 310.866 18.9533 310.772 18.86C310.679 18.7667 310.632 18.6533 310.632 18.52V5.5C310.632 5.35333 310.672 5.23333 310.752 5.14C310.846 5.04667 310.966 5 311.112 5H316.472C318.072 5 319.332 5.38 320.252 6.14C321.172 6.88667 321.632 7.98667 321.632 9.44C321.632 10.8933 321.172 11.9933 320.252 12.74C319.346 13.4733 318.086 13.84 316.472 13.84H313.492V18.52C313.492 18.6533 313.446 18.7667 313.352 18.86C313.272 18.9533 313.159 19 313.012 19H311.112ZM316.372 11.62C317.146 11.62 317.739 11.44 318.152 11.08C318.566 10.7067 318.772 10.16 318.772 9.44C318.772 8.74667 318.572 8.20667 318.172 7.82C317.772 7.42 317.172 7.22 316.372 7.22H313.452V11.62H316.372ZM327.639 19.2C326.079 19.2 324.872 18.8 324.019 18C323.166 17.1867 322.706 16.08 322.639 14.68L322.619 13.8L322.639 12.92C322.706 11.5333 323.172 10.4333 324.039 9.62C324.906 8.80667 326.106 8.4 327.639 8.4C329.172 8.4 330.372 8.80667 331.239 9.62C332.106 10.4333 332.572 11.5333 332.639 12.92C332.652 13.08 332.659 13.3733 332.659 13.8C332.659 14.2267 332.652 14.52 332.639 14.68C332.572 16.08 332.112 17.1867 331.259 18C330.406 18.8 329.199 19.2 327.639 19.2ZM327.639 17.22C328.346 17.22 328.892 17 329.279 16.56C329.666 16.1067 329.879 15.4467 329.919 14.58C329.932 14.4467 329.939 14.1867 329.939 13.8C329.939 13.4133 329.932 13.1533 329.919 13.02C329.879 12.1533 329.666 11.5 329.279 11.06C328.892 10.6067 328.346 10.38 327.639 10.38C326.932 10.38 326.386 10.6067 325.999 11.06C325.612 11.5 325.399 12.1533 325.359 13.02L325.339 13.8L325.359 14.58C325.399 15.4467 325.612 16.1067 325.999 16.56C326.386 17 326.932 17.22 327.639 17.22ZM334.975 19C334.842 19 334.728 18.9533 334.635 18.86C334.542 18.7667 334.495 18.6533 334.495 18.52V5.28C334.495 5.13333 334.542 5.02 334.635 4.94C334.728 4.84667 334.842 4.8 334.975 4.8H336.635C336.782 4.8 336.895 4.84667 336.975 4.94C337.068 5.02 337.115 5.13333 337.115 5.28V18.52C337.115 18.6533 337.068 18.7667 336.975 18.86C336.895 18.9533 336.782 19 336.635 19H334.975ZM342.388 19.2C341.708 19.2 341.081 19.0667 340.508 18.8C339.948 18.52 339.501 18.1467 339.168 17.68C338.848 17.2133 338.688 16.7 338.688 16.14C338.688 15.2333 339.055 14.5 339.788 13.94C340.521 13.38 341.528 13 342.808 12.8L345.548 12.4V11.98C345.548 11.3933 345.401 10.9533 345.108 10.66C344.815 10.3667 344.341 10.22 343.688 10.22C343.248 10.22 342.888 10.3067 342.608 10.48C342.341 10.64 342.128 10.8 341.968 10.96C341.808 11.1333 341.701 11.2467 341.648 11.3C341.595 11.46 341.495 11.54 341.348 11.54H339.808C339.688 11.54 339.581 11.5 339.488 11.42C339.408 11.34 339.368 11.2333 339.368 11.1C339.381 10.7667 339.541 10.3867 339.848 9.96C340.168 9.53333 340.655 9.16667 341.308 8.86C341.961 8.55333 342.761 8.4 343.708 8.4C345.281 8.4 346.428 8.75333 347.148 9.46C347.868 10.1667 348.228 11.0933 348.228 12.24V18.52C348.228 18.6533 348.181 18.7667 348.088 18.86C348.008 18.9533 347.895 19 347.748 19H346.128C345.995 19 345.881 18.9533 345.788 18.86C345.695 18.7667 345.648 18.6533 345.648 18.52V17.74C345.355 18.1667 344.935 18.52 344.388 18.8C343.855 19.0667 343.188 19.2 342.388 19.2ZM343.068 17.3C343.801 17.3 344.401 17.06 344.868 16.58C345.335 16.1 345.568 15.4 345.568 14.48V14.06L343.568 14.38C342.795 14.5 342.208 14.6933 341.808 14.96C341.421 15.2267 341.228 15.5533 341.228 15.94C341.228 16.3667 341.408 16.7 341.768 16.94C342.128 17.18 342.561 17.3 343.068 17.3ZM350.874 19C350.74 19 350.627 18.9533 350.534 18.86C350.44 18.7667 350.394 18.6533 350.394 18.52V9.1C350.394 8.96667 350.44 8.85333 350.534 8.76C350.627 8.65333 350.74 8.6 350.874 8.6H352.494C352.64 8.6 352.76 8.64667 352.854 8.74C352.947 8.83333 352.994 8.95333 352.994 9.1V9.92C353.314 9.49333 353.714 9.16667 354.194 8.94C354.687 8.71333 355.247 8.6 355.874 8.6H356.694C356.84 8.6 356.954 8.64667 357.034 8.74C357.127 8.82 357.174 8.93333 357.174 9.08V10.52C357.174 10.6533 357.127 10.7667 357.034 10.86C356.954 10.9533 356.84 11 356.694 11H355.134C354.507 11 354.014 11.18 353.654 11.54C353.294 11.9 353.114 12.3933 353.114 13.02V18.52C353.114 18.6533 353.067 18.7667 352.974 18.86C352.88 18.9533 352.76 19 352.614 19H350.874ZM362.794 19C362.661 19 362.548 18.9533 362.454 18.86C362.361 18.7667 362.314 18.6533 362.314 18.52V5.5C362.314 5.35333 362.354 5.23333 362.434 5.14C362.528 5.04667 362.648 5 362.794 5H364.334C364.494 5 364.614 5.03333 364.694 5.1C364.774 5.15333 364.848 5.22667 364.914 5.32L370.674 14.28V5.5C370.674 5.35333 370.714 5.23333 370.794 5.14C370.888 5.04667 371.008 5 371.154 5H372.834C372.981 5 373.101 5.04667 373.194 5.14C373.288 5.23333 373.334 5.35333 373.334 5.5V18.5C373.334 18.6467 373.288 18.7667 373.194 18.86C373.101 18.9533 372.988 19 372.854 19H371.294C371.068 19 370.874 18.8933 370.714 18.68L364.974 9.92V18.52C364.974 18.6667 364.928 18.7867 364.834 18.88C364.741 18.96 364.621 19 364.474 19H362.794ZM376.215 6.88C376.082 6.88 375.968 6.83333 375.875 6.74C375.782 6.64667 375.735 6.53333 375.735 6.4V4.96C375.735 4.82667 375.782 4.71333 375.875 4.62C375.968 4.52667 376.082 4.48 376.215 4.48H378.035C378.168 4.48 378.282 4.52667 378.375 4.62C378.482 4.71333 378.535 4.82667 378.535 4.96V6.4C378.535 6.53333 378.488 6.64667 378.395 6.74C378.302 6.83333 378.182 6.88 378.035 6.88H376.215ZM376.295 19C376.162 19 376.048 18.9533 375.955 18.86C375.862 18.7667 375.815 18.6533 375.815 18.52V9.08C375.815 8.94667 375.862 8.83333 375.955 8.74C376.048 8.64667 376.162 8.6 376.295 8.6H377.955C378.102 8.6 378.215 8.64667 378.295 8.74C378.388 8.82 378.435 8.93333 378.435 9.08V18.52C378.435 18.6533 378.388 18.7667 378.295 18.86C378.215 18.9533 378.102 19 377.955 19H376.295ZM385.388 23.4C384.202 23.4 383.242 23.2 382.508 22.8C381.775 22.4133 381.255 21.9667 380.948 21.46C380.642 20.9533 380.488 20.52 380.488 20.16C380.488 20.04 380.535 19.9333 380.628 19.84C380.735 19.7467 380.848 19.7 380.968 19.7H382.708C382.828 19.7 382.928 19.7267 383.008 19.78C383.102 19.8467 383.175 19.96 383.228 20.12C383.362 20.48 383.575 20.78 383.868 21.02C384.175 21.2733 384.648 21.4 385.288 21.4C386.088 21.4 386.675 21.22 387.048 20.86C387.435 20.5 387.628 19.88 387.628 19V17.64C386.895 18.5067 385.868 18.94 384.548 18.94C383.162 18.94 382.115 18.5133 381.408 17.66C380.715 16.8067 380.342 15.66 380.288 14.22L380.268 13.68L380.288 13.14C380.342 11.7267 380.722 10.5867 381.428 9.72C382.135 8.84 383.175 8.4 384.548 8.4C385.255 8.4 385.875 8.53333 386.408 8.8C386.942 9.06667 387.388 9.43333 387.748 9.9V9.1C387.748 8.95333 387.795 8.83333 387.888 8.74C387.982 8.64667 388.095 8.6 388.228 8.6H389.848C389.982 8.6 390.095 8.65333 390.188 8.76C390.282 8.85333 390.328 8.96667 390.328 9.1L390.348 18.74C390.348 20.22 389.935 21.3667 389.108 22.18C388.282 22.9933 387.042 23.4 385.388 23.4ZM385.288 16.82C386.048 16.82 386.615 16.58 386.988 16.1C387.375 15.62 387.588 15.0333 387.628 14.34C387.642 14.2333 387.648 14.0133 387.648 13.68C387.648 13.36 387.642 13.1467 387.628 13.04C387.588 12.3333 387.375 11.74 386.988 11.26C386.615 10.78 386.048 10.54 385.288 10.54C383.848 10.54 383.088 11.4267 383.008 13.2L382.988 13.68C382.988 14.6267 383.155 15.3867 383.488 15.96C383.835 16.5333 384.435 16.82 385.288 16.82ZM393.113 19C392.979 19 392.866 18.9533 392.773 18.86C392.679 18.7667 392.633 18.6533 392.633 18.52V5.28C392.633 5.13333 392.679 5.02 392.773 4.94C392.866 4.84667 392.979 4.8 393.113 4.8H394.893C395.039 4.8 395.153 4.84667 395.233 4.94C395.326 5.02 395.373 5.13333 395.373 5.28V9.84C396.173 8.88 397.253 8.4 398.613 8.4C399.839 8.4 400.819 8.80667 401.553 9.62C402.286 10.42 402.653 11.5133 402.653 12.9V18.52C402.653 18.6533 402.606 18.7667 402.513 18.86C402.433 18.9533 402.319 19 402.173 19H400.373C400.239 19 400.126 18.9533 400.033 18.86C399.939 18.7667 399.893 18.6533 399.893 18.52V13.02C399.893 12.2333 399.699 11.6267 399.313 11.2C398.939 10.76 398.393 10.54 397.673 10.54C396.966 10.54 396.406 10.76 395.993 11.2C395.579 11.64 395.373 12.2467 395.373 13.02V18.52C395.373 18.6533 395.326 18.7667 395.233 18.86C395.153 18.9533 395.039 19 394.893 19H393.113ZM409.374 19C408.16 19 407.247 18.6867 406.634 18.06C406.034 17.42 405.734 16.4867 405.734 15.26V10.72H404.154C404.02 10.72 403.907 10.6733 403.814 10.58C403.72 10.4733 403.674 10.3533 403.674 10.22V9.08C403.674 8.94667 403.72 8.83333 403.814 8.74C403.907 8.64667 404.02 8.6 404.154 8.6H405.734V5.28C405.734 5.13333 405.78 5.02 405.874 4.94C405.967 4.84667 406.08 4.8 406.214 4.8H407.834C407.98 4.8 408.094 4.84667 408.174 4.94C408.267 5.02 408.314 5.13333 408.314 5.28V8.6H410.814C410.96 8.6 411.074 8.64667 411.154 8.74C411.247 8.82 411.294 8.93333 411.294 9.08V10.22C411.294 10.3667 411.247 10.4867 411.154 10.58C411.06 10.6733 410.947 10.72 410.814 10.72H408.314V15.06C408.314 15.6333 408.414 16.0667 408.614 16.36C408.814 16.6533 409.147 16.8 409.614 16.8H410.994C411.127 16.8 411.24 16.8467 411.334 16.94C411.427 17.0333 411.474 17.1467 411.474 17.28V18.52C411.474 18.6533 411.427 18.7667 411.334 18.86C411.254 18.9533 411.14 19 410.994 19H409.374Z" fill="#3B4252"/>
</svg>
